<svg width="684" height="304" viewBox="0 0 684 304" fill="none" xmlns="http://www.w3.org/2000/svg">
<path d="M399.752 227H302V297.678H399.752V227Z" fill="#935941"/>
<path d="M361.463 227H302V297.678H361.463V227Z" fill="#C67D60"/>
<path d="M335.405 227H323.454V239.904H335.405V227Z" fill="#EF9F7E"/>
<path d="M440.369 84.5354L395.9 126.131C395.9 126.131 404.132 142.894 422.471 137.174C437.825 132.383 455.053 111.749 459.502 91.5365L440.369 84.5354Z" fill="#FE4F88"/>
<path d="M416.899 139.022L411.74 138.085L421.896 101.813L416.899 139.022Z" fill="#001145"/>
<path d="M415.249 296.642H456.635V262.335H434.613V274.94C434.613 277.101 434.148 278.609 433.29 279.709C433.066 280.007 432.807 280.277 432.516 280.511C431.891 281.05 431.146 281.469 430.291 281.813C429.975 281.944 429.649 282.065 429.305 282.175C428.531 282.434 427.683 282.661 426.782 282.892C426.448 282.977 426.1 283.059 425.749 283.144C424.873 283.367 423.943 283.591 422.981 283.861C421.949 284.141 421.054 284.542 420.27 285.035C419.954 285.223 419.663 285.425 419.387 285.649C416.825 287.679 415.82 290.681 415.437 293.037C415.391 293.335 415.352 293.615 415.324 293.885C415.146 295.496 415.249 296.642 415.249 296.642Z" fill="#001145"/>
<path d="M434.613 253.812H456.635V274.936H434.613V253.812Z" fill="#FFCBCB"/>
<path d="M415.324 293.889H456.635V293.04H415.437C415.391 293.331 415.352 293.615 415.324 293.889Z" fill="#6864FF"/>
<path d="M411.79 258.986H456.635V111.83H422.038L411.79 258.986Z" fill="#6864FF"/>
<path d="M434.613 258.986L456.639 263.208L456.635 258.986H434.613Z" fill="#DD9691"/>
<path d="M444.957 202.576L456.635 226.414V251.176L444.957 202.576Z" fill="#001145"/>
<path d="M446.724 293.111L447.487 293.821L448.215 293.037L456.635 284.002V282.484L446.792 293.037L446.724 293.111Z" fill="#6864FF"/>
<path d="M419.387 285.653L428.105 293.04L429.074 293.86L429.745 293.069L429.709 293.04L420.274 285.039C419.955 285.223 419.667 285.429 419.387 285.653Z" fill="#6864FF"/>
<path d="M432.807 278.711L434.201 281.592L433.262 282.047L431.868 279.166L432.807 278.711Z" fill="#6864FF"/>
<path d="M429.542 280.299L430.936 283.18L429.997 283.634L428.603 280.753L429.542 280.299Z" fill="#6864FF"/>
<path d="M426.295 281.88L427.687 284.762L426.748 285.215L425.355 282.334L426.295 281.88Z" fill="#6864FF"/>
<path d="M494.76 282.512C491.471 286.05 491.911 290.393 492.801 293.324C492.894 293.601 492.986 293.878 493.071 294.133C493.625 295.663 494.217 296.639 494.217 296.639L531.38 278.424L530.17 275.955L529.798 275.195L525.855 267.151L525.185 265.774L521.835 258.936L516.292 247.616H516.282L512.211 249.621L512.19 249.628L496.509 257.304L502.052 268.623C502.875 270.312 503.166 271.7 503.049 272.913C503.014 273.293 502.943 273.652 502.829 274.003C502.584 274.805 502.148 275.543 501.566 276.26C501.36 276.522 501.122 276.788 500.871 277.055C500.296 277.658 499.636 278.261 498.905 278.882C498.628 279.116 498.348 279.358 498.05 279.599C497.279 280.252 496.446 280.951 495.583 281.703C495.562 281.717 495.551 281.735 495.53 281.753C495.257 282.001 495.001 282.257 494.76 282.512Z" fill="#001145"/>
<path d="M512.543 239.978L521.838 258.947L502.062 268.637L492.768 249.667L512.543 239.978Z" fill="#FFCBCB"/>
<path d="M493.074 294.133L530.174 275.958L529.801 275.199L492.805 293.324C492.89 293.608 492.982 293.878 493.074 294.133Z" fill="#6864FF"/>
<path d="M445.777 205.372C446.043 206.081 446.345 206.784 446.685 207.48L456.635 227.784L474.544 264.344L489.239 257.144L490.179 256.686L514.816 244.614L486.957 187.75C486.826 187.47 486.684 187.204 486.535 186.937C481.244 177.122 469.555 172.775 459.208 176.53C458.867 176.647 458.527 176.782 458.19 176.92C457.774 177.098 457.363 177.282 456.955 177.481C456.845 177.534 456.742 177.584 456.635 177.644C449.606 181.221 445.252 188.03 444.514 195.369C444.471 195.738 444.446 196.114 444.425 196.493C444.269 199.446 444.705 202.469 445.777 205.372Z" fill="#6864FF"/>
<path d="M444.687 201.209L489.097 192.221L484.203 111.83H444.396L444.687 201.209Z" fill="#6864FF"/>
<path d="M495.044 254.305L516.676 248.404L514.816 244.614L495.044 254.305Z" fill="#DD9691"/>
<path d="M521.065 279.627L522.069 279.922L522.392 278.829L525.859 267.158L525.188 265.781L521.118 279.457L521.065 279.627Z" fill="#6864FF"/>
<path d="M494.76 282.512L506.115 286.799L506.946 287.114L507.279 286.242L507.311 286.142L495.59 281.71C495.569 281.724 495.559 281.742 495.537 281.76C495.257 282.001 495.001 282.257 494.76 282.512Z" fill="#6864FF"/>
<path d="M501.935 272.275L504.688 273.908L504.156 274.805L501.403 273.172L501.935 272.275Z" fill="#6864FF"/>
<path d="M500.093 275.397L502.846 277.03L502.314 277.927L499.561 276.294L500.093 275.397Z" fill="#6864FF"/>
<path d="M498.262 278.514L501.015 280.147L500.483 281.044L497.73 279.412L498.262 278.514Z" fill="#6864FF"/>
<path d="M454.329 111.862L456.635 150.718L458.189 176.924L458.963 189.946L459.002 190.035L489.242 257.144L490.179 256.686L459.992 189.687L459.208 176.53L456.635 133.103L455.372 111.83V111.795L454.797 111.83L454.329 111.862Z" fill="#001145"/>
<path d="M414.94 258.986H415.984L425.82 111.83L425.866 111.114L424.823 111.046L424.77 111.83L414.94 258.986Z" fill="#001145"/>
<path d="M492.73 140.914L486.801 154.483L419.508 148.167L415.633 135.875L429.482 59.0822L455.926 38.2278L471.156 35.4209L481.553 51.4636L492.73 140.914Z" fill="#FE4F88"/>
<path d="M511.488 95.3157L478.306 46.4567C478.306 46.4531 466.099 126.979 511.488 95.3157Z" fill="#FE4F88"/>
<path d="M498.089 83.4318L554.907 105.322C554.907 105.322 553.558 123.948 534.414 125.52C518.386 126.837 494.675 114.165 482.976 97.0935L498.089 83.4318Z" fill="#FE4F88"/>
<path d="M560.088 107.359C560.088 107.359 578 116.035 578 119.875C578 123.718 561.706 114.066 561.706 114.066C561.706 114.066 580.832 124.726 576.641 125.307C572.45 125.889 558.98 118.824 558.98 118.824C558.98 118.824 569.537 124.956 565.229 125.073C560.921 125.194 545.354 117.37 545.354 117.37C545.354 117.37 544.261 107.59 560.088 107.359Z" fill="#FFCBCB"/>
<path d="M574.583 103.573C574.583 103.573 557.234 100.291 553.391 102.689C549.548 105.088 541.075 118.65 546.813 117.547C552.554 116.443 557.352 111.259 559.445 108.232C561.542 105.205 573.071 109.396 574.583 103.573Z" fill="#FFCBCB"/>
<path d="M554.488 113.136C555.34 113.136 556.177 113.037 556.933 112.778C560.343 111.614 561.226 107.632 561.262 107.462L560.286 107.253C560.279 107.288 559.481 110.854 556.61 111.834C553.64 112.849 548.849 111.007 548.8 110.989L548.438 111.915C548.601 111.979 551.603 113.136 554.488 113.136Z" fill="#001145"/>
<path d="M558.356 120.464C558.437 120.368 560.347 118.069 561.482 115.829C562.642 113.548 562.724 111.93 562.728 111.859L561.734 111.816C561.734 111.83 561.652 113.306 560.595 115.379C559.509 117.515 557.611 119.804 557.589 119.829L558.356 120.464Z" fill="#001145"/>
<path d="M444.425 196.497L439.404 150.264L434.216 151.325L444.425 196.497Z" fill="#001145"/>
<path d="M487.638 102.98L488.266 102.398C488.146 102.267 476.045 89.1272 471.585 78.8366C467.142 68.5886 467.174 62.911 467.174 62.8542L466.319 62.84C466.315 63.0742 466.273 68.7341 470.801 79.1772C475.318 89.6027 487.514 102.849 487.638 102.98Z" fill="#001145"/>
<path d="M463.649 68.4009L468.787 71.6481L468.331 72.371L463.192 69.1239L463.649 68.4009Z" fill="#001145"/>
<path d="M436.242 97.9004L464.08 129.065L463.44 129.637L435.601 98.4724L436.242 97.9004Z" fill="#001145"/>
<path d="M438.235 106.719L460.321 140.449L459.606 140.918L437.52 107.188L438.235 106.719Z" fill="#001145"/>
<path d="M505.061 85.86L505.542 86.567L499.02 91.0049L498.539 90.2979L505.061 85.86Z" fill="#001145"/>
<path d="M427.548 56.5699C427.548 56.5699 442.207 91.015 463.086 84.0599C472.067 81.0721 477.269 75.3591 480.279 69.8305C480.491 69.4402 480.701 69.0392 480.892 68.6489C484.292 61.7613 484.427 55.4698 484.427 55.4698L473.547 38.611L472.816 37.4791L468.388 30.6198L449.442 35.6622L447.586 37.4365L446.433 38.5365L440.83 43.8876L439.915 44.7676L435.774 48.7135L434.894 49.5545L427.548 56.5699Z" fill="#6864FF"/>
<path d="M472.238 31.9789C472.238 31.9789 462.011 36.9894 453.321 36.9894C444.627 36.9894 442.892 35.8929 441.866 27.2878C440.844 18.6828 445.241 -3.91395 462.93 0.585522C480.623 5.08499 472.238 31.9789 472.238 31.9789Z" fill="#6864FF"/>
<path d="M446.437 38.5365C447.76 38.7352 449.052 38.8239 450.294 38.8239C458.906 38.8239 465.322 34.5516 465.662 34.3209L464.974 33.3096C464.885 33.3699 457.199 38.4691 447.59 37.4329L446.437 38.5365Z" fill="#001145"/>
<path d="M439.915 44.7676C443.484 46.918 448.083 48.8093 453.175 48.8093C455.4 48.8093 457.728 48.4474 460.109 47.5887C466.968 45.1118 471.084 41.6521 473.547 38.6075L472.816 37.4755C470.503 40.4704 466.503 43.9799 459.69 46.4354C452.455 49.0435 445.713 46.7619 440.834 43.884L439.915 44.7676Z" fill="#001145"/>
<path d="M434.897 49.5581C442.555 57.6238 451.653 62.0664 458.675 64.4688C468.824 67.9427 475.744 69.3408 480.282 69.8341C480.495 69.4437 480.704 69.0427 480.896 68.6524C476.492 68.223 469.52 66.8853 459.076 63.3084C452.189 60.9487 443.282 56.6053 435.777 48.7171L434.897 49.5581Z" fill="#6864FF"/>
<path d="M445.177 16.7027V16.7737L445.262 26.2268C445.291 29.7008 447.775 33.0434 451.018 32.3941L462.912 30.9534L462.795 18.6756L453.182 9.16218C453.19 9.15508 445.177 13.9846 445.177 16.7027Z" fill="#FFCBCB"/>
<path d="M445.213 20.6734L445.255 25.2616C445.422 25.3113 445.599 25.3361 445.777 25.3361C446.934 25.3255 447.863 24.2539 447.853 22.9445C447.842 21.628 446.891 20.5776 445.734 20.5883C445.553 20.5918 445.376 20.6202 445.213 20.6734Z" fill="#D98978"/>
<path d="M453.679 22.9658C453.693 24.3532 454.829 25.471 456.216 25.4568C457.604 25.4426 458.722 24.3071 458.707 22.9196C458.693 21.5322 457.558 20.4144 456.17 20.4286C454.783 20.4392 453.669 21.5748 453.679 22.9658Z" fill="#D98978"/>
<path d="M453.087 28.2565C453.764 28.2565 454.666 28.0223 455.542 27.0607L455.074 26.6313C453.679 28.1607 452.295 27.4759 452.281 27.4688L451.99 28.033C451.997 28.0365 452.437 28.2565 453.087 28.2565Z" fill="#001145"/>
<path d="M453.661 20.7515C453.665 21.1915 454.023 21.5428 454.463 21.5393C454.903 21.5357 455.255 21.1773 455.251 20.7373C455.248 20.2973 454.889 19.946 454.449 19.9496C454.009 19.9531 453.658 20.3115 453.661 20.7515Z" fill="#001145"/>
<path d="M446.71 20.8118C446.714 21.2518 447.072 21.6031 447.512 21.5996C447.952 21.596 448.303 21.2377 448.3 20.7976C448.296 20.3576 447.938 20.0063 447.498 20.0099C447.058 20.017 446.707 20.3754 446.71 20.8118Z" fill="#001145"/>
<path d="M450.06 24.5022C450.099 24.5022 450.141 24.4987 450.181 24.4916L451.937 24.19L451.831 23.5654L450.074 23.8671L449.67 23.75L449.957 23.9948L450.369 20.3079L449.737 20.237L449.354 23.7145C449.329 23.938 449.411 24.1545 449.574 24.3106C449.709 24.4348 449.882 24.5022 450.06 24.5022Z" fill="#001145"/>
<path d="M452.428 35.0951L455.664 35.0809C460.02 34.9957 463.482 31.3828 463.397 27.0246L463.319 23L445 23.3691L445.078 27.3937C445.163 31.7519 446.376 34.9744 452.428 35.0951Z" fill="white"/>
<path d="M409.809 186.089L489.1 192.221L486.801 154.479L419.507 148.17L418.532 151.974L418.251 153.071L409.809 186.089Z" fill="#FE4F88"/>
<path d="M425.928 149.265L472.573 153.934L472.462 155.036L425.818 150.367L425.928 149.265Z" fill="#001145"/>
<path d="M418.251 153.071L456.926 157.066L457.036 155.966L418.532 151.974L418.251 153.071Z" fill="#001145"/>
<path d="M394.032 126.988C394.032 126.988 376.525 135.875 378.392 137.577C380.262 139.281 395.93 131.427 395.93 131.427L394.032 126.988Z" fill="#FFCBCB"/>
<path d="M401.116 136.274C401.116 136.274 382.547 142.502 384.16 144.451C385.774 146.4 402.373 140.936 402.373 140.936L401.116 136.274Z" fill="#FFCBCB"/>
<path d="M401.801 141.03C406.533 140.227 409.21 135.655 408.575 131.017C407.94 126.379 403.596 123.272 398.864 124.075C394.132 124.878 390.812 129.286 391.446 133.924C392.078 138.559 397.069 141.833 401.801 141.03Z" fill="#FFCBCB"/>
<path d="M395.496 131.522C395.496 131.522 377.583 140.54 379.368 142.598C381.156 144.653 397.176 136.704 397.176 136.704L395.496 131.522Z" fill="#FFCBCB"/>
<path d="M396.022 138.431L388.394 146.273C387.237 147.462 385.34 147.488 384.151 146.332L362.011 124.798C360.822 123.641 360.795 121.744 361.952 120.555L369.58 112.713C370.736 111.523 372.633 111.497 373.822 112.654L395.963 134.188C397.152 135.345 397.178 137.241 396.022 138.431Z" fill="#001145"/>
<path d="M396.421 138.819L388.793 146.662C387.425 148.068 385.169 148.1 383.762 146.732L361.622 125.197C360.215 123.829 360.184 121.573 361.552 120.166L369.18 112.324C370.548 110.917 372.804 110.886 374.211 112.254L396.351 133.788C397.758 135.157 397.789 137.412 396.421 138.819ZM362.351 120.944C361.413 121.909 361.435 123.459 362.399 124.398L384.54 145.932C385.505 146.871 387.056 146.849 387.994 145.884L395.622 138.042C396.56 137.077 396.539 135.526 395.574 134.588L373.434 113.053C372.469 112.115 370.918 112.136 369.979 113.101L362.351 120.944Z" fill="#231F20"/>
<path d="M368.668 117.681L366.892 119.506C366.759 119.643 366.538 119.649 366.398 119.513C366.262 119.38 366.256 119.159 366.392 119.02L368.167 117.194C368.3 117.057 368.521 117.051 368.661 117.187C368.797 117.32 368.804 117.541 368.668 117.681Z" fill="#231F20"/>
<path d="M402.093 124.207C402.093 124.207 399.318 123.796 394.692 124.36C390.065 124.925 383.933 127.362 383.704 128.689C383.476 130.016 399.296 129.591 399.296 129.591L402.093 124.207Z" fill="#FFCBCB"/>
<path d="M400.994 134.41L400.589 133.598C400.573 133.608 398.987 134.367 396.699 133.924C394.54 133.506 393.627 129.595 393.616 129.554L393.541 129.215L388.349 128.97L388.304 129.874L392.819 130.087C393.116 131.154 394.196 134.36 396.526 134.811C399.135 135.32 400.918 134.449 400.994 134.41Z" fill="#231F20"/>
<path d="M263.452 150.075H315.411C315.411 150.075 306.431 174.668 282.17 174.668C262.458 174.668 263.452 150.075 263.452 150.075Z" fill="#FFCBCB"/>
<path d="M318.147 153.289H303.808V145.351C303.808 140.451 307.78 136.479 312.68 136.479H327.019V144.418C327.019 149.318 323.047 153.289 318.147 153.289Z" fill="#FFCBCB"/>
<path d="M276.967 150.075H283.703L280.309 174.587L276.967 150.075Z" fill="#DD9691"/>
<path d="M314.185 186.162V232.729H230.579C222.456 232.729 215.407 228.043 212.013 221.226C211.881 220.97 211.757 220.705 211.644 220.43C210.493 217.855 209.859 215.001 209.859 212.004V186.162H314.185Z" fill="#6864FF"/>
<path d="M167.676 160.078C168.348 158.999 195.109 118.912 215.943 124.626C236.109 130.15 184.23 179.179 184.23 179.179L167.676 160.078Z" fill="#FFCBCB"/>
<path d="M171.263 143.301L199.07 124.02L206.659 153.919L196.599 167.647L171.263 143.301Z" fill="#FFC945"/>
<path d="M294.578 209.424H198.356L198.252 198.053L199.071 124.02L233.146 102.802H247.196L273.341 130.926L293.03 198.053L294.578 209.424Z" fill="#FFC945"/>
<path d="M237.79 165.167L183.78 185.631C173.602 186.455 164.911 178.365 165.001 168.159C165.086 158.563 172.935 150.851 182.531 150.937L236.133 152.39L237.79 165.167Z" fill="#FFCBCB"/>
<path d="M233.141 102.802H247.456C247.456 102.802 248.147 107.669 242.429 107.716C238.443 107.749 233.141 102.802 233.141 102.802Z" fill="#FFCBCB"/>
<path d="M239.648 171.964L240.171 172.486L231.176 181.48L230.654 180.958L239.648 171.964Z" fill="#001145"/>
<path d="M239.913 178.244L240.436 178.766L231.441 187.76L230.919 187.238L239.913 178.244Z" fill="#001145"/>
<path d="M249.913 232.729H238.836L254.022 218.598L249.913 232.729Z" fill="#001145"/>
<path d="M261.148 228.793H166.761V296.962H261.148V228.793Z" fill="#935941"/>
<path d="M224.092 228.793H166.761V296.962H224.092V228.793Z" fill="#C67D60"/>
<path d="M198.923 228.793H187.386V241.378H198.923V228.793Z" fill="#EF9F7E"/>
<path d="M358.04 303.042H303.577L301.925 286.35V286.341L299.804 264.972L328.771 264.962L329.698 274.274C329.973 277.114 330.787 279.102 332.061 280.542C332.387 280.939 332.766 281.294 333.183 281.602C334.068 282.307 335.1 282.856 336.279 283.316C336.714 283.481 337.154 283.642 337.623 283.794C338.674 284.13 339.824 284.428 341.046 284.731C341.495 284.845 341.954 284.954 342.433 285.067C343.616 285.361 344.871 285.649 346.163 286.004C347.55 286.374 348.781 286.899 349.87 287.543C349.879 287.543 349.879 287.552 349.889 287.552C350.329 287.799 350.736 288.064 351.134 288.357C354.769 291.037 356.483 294.98 357.288 298.085C357.392 298.474 357.472 298.838 357.543 299.198C357.884 300.831 358.026 302.545 358.04 303.042Z" fill="#96BBFF"/>
<path d="M329.693 274.264H300.722L298.686 253.752L327.663 253.748L329.693 274.264Z" fill="#FFCBCB"/>
<path d="M357.543 299.193L303.188 299.198L303.079 298.086L357.283 298.081C357.382 298.464 357.467 298.838 357.543 299.193Z" fill="#001145"/>
<path d="M347.441 260.546H328.335L308.651 260.555H299.368L298.686 253.748L297.181 238.618V238.609L296.598 232.729L294.407 210.57C294.336 209.827 294.303 209.083 294.303 208.35C294.303 204.373 295.372 200.605 297.247 197.353C300.357 191.899 305.735 187.866 312.145 186.593C312.438 186.531 312.727 186.479 313.03 186.441C313.409 186.37 313.797 186.327 314.19 186.28C314.961 186.2 315.738 186.157 316.523 186.157C327.445 186.157 336.737 194.072 338.46 204.842L339.308 210.077L339.44 210.953L341.907 226.225L342.11 227.47L347.441 260.546Z" fill="#6864FF"/>
<path d="M328.335 260.555L299.912 266.113L299.363 260.56L328.335 260.555Z" fill="#E59A8A"/>
<path d="M332.179 283.765L330.882 283.164L332.667 278.932L333.964 279.529L332.179 283.765Z" fill="#001145"/>
<path d="M336.922 286.251L335.625 285.654L337.06 281.299L338.352 281.9L336.922 286.251Z" fill="#001145"/>
<path d="M341.277 288.395L339.98 287.799L341.557 283.377L342.854 283.974L341.277 288.395Z" fill="#001145"/>
<path d="M295.198 298.081C295.207 298.469 295.207 298.833 295.198 299.193C295.155 300.831 294.89 302.545 294.791 303.037H240.327L242.67 285.825L245.515 264.967L274.482 264.958L273.218 274.269C272.83 277.11 273.176 279.098 274.103 280.537C274.34 280.935 274.634 281.29 274.979 281.597C275.704 282.303 276.608 282.852 277.668 283.311C278.066 283.477 278.473 283.638 278.904 283.789C279.874 284.125 280.944 284.423 282.094 284.726C282.52 284.84 282.961 284.949 283.41 285.062C284.523 285.356 285.711 285.645 286.918 286C288.225 286.369 289.332 286.904 290.27 287.548C290.464 287.671 290.648 287.803 290.828 287.936C290.994 288.069 291.174 288.211 291.33 288.353C294.336 291.032 295.117 294.975 295.198 298.081Z" fill="#96BBFF"/>
<path d="M273.213 274.264H244.242L247.04 253.752L276.011 253.748L273.213 274.264Z" fill="#FFCBCB"/>
<path d="M295.198 299.193L240.843 299.198L240.994 298.086L295.198 298.081C295.207 298.464 295.207 298.838 295.198 299.193Z" fill="#001145"/>
<path d="M297.191 238.62L306.658 186.163L276.347 186.173L297.191 238.62Z" fill="#001145"/>
<path d="M300.703 212.809C300.694 212.942 300.675 213.074 300.661 213.207L300.59 213.704L298.857 226.391L298.691 227.664L297.991 232.729L297.186 238.618L294.199 260.555H246.107L249.908 232.729L253.454 206.759C253.497 206.451 253.544 206.139 253.615 205.831C253.658 205.495 253.729 205.15 253.819 204.823C254.931 199.729 257.648 195.298 261.398 192.027C264.872 189.002 269.213 186.971 273.971 186.361C274.274 186.318 274.572 186.28 274.875 186.256C275.59 186.195 276.324 186.157 277.057 186.157C285.659 186.157 293.067 190.673 297.252 197.353C300.031 201.784 301.385 207.161 300.703 212.809Z" fill="#6864FF"/>
<path d="M275.083 260.555L245.355 266.113L246.112 260.56L275.083 260.555Z" fill="#DD9691"/>
<path d="M291.331 288.357L278.535 298.076L277.115 299.156L276.376 298.114L276.428 298.076L290.28 287.548C290.658 287.794 290.999 288.064 291.331 288.357Z" fill="#001145"/>
<path d="M350.419 287.879L348.729 289.593L348.26 290.08L340.79 297.702L339.365 298.781L338.262 299.165L337.751 298.441L338.688 297.707L347.114 289.299L349.216 287.193C349.623 287.396 349.799 287.5 349.86 287.548C349.87 287.548 349.879 287.557 349.879 287.557C350.068 287.657 350.244 287.761 350.419 287.879Z" fill="#001145"/>
<path d="M273.464 283.765L272.309 283.164L275.093 278.932L276.248 279.529L273.464 283.765Z" fill="#001145"/>
<path d="M277.621 286.251L276.466 285.654L278.923 281.299L280.078 281.9L277.621 286.251Z" fill="#001145"/>
<path d="M281.469 288.395L280.314 287.799L282.932 283.377L284.087 283.974L281.469 288.395Z" fill="#001145"/>
<path d="M266.695 188.533L209.855 210.475H252.948L266.695 188.533Z" fill="#6864FF"/>
<path d="M269.242 204.425L264.328 232.729L259.49 260.555H258.586L263.424 232.729L268.366 204.278C268.517 203.403 268.205 202.555 267.528 201.987C266.846 201.419 265.947 201.272 265.123 201.57L253.61 205.831L212.018 221.226C211.886 220.97 211.763 220.705 211.649 220.43L253.814 204.823L264.811 200.747C265.942 200.321 267.173 200.534 268.091 201.305C269.01 202.077 269.44 203.242 269.242 204.425Z" fill="#001145"/>
<path d="M298.686 212.899C285.469 212.899 274.719 202.139 274.719 188.931C274.719 188.027 274.771 187.137 274.87 186.261C274.567 186.29 274.269 186.323 273.966 186.365C273.876 187.203 273.833 188.065 273.833 188.931C273.833 202.636 284.982 213.784 298.686 213.784C299.321 213.784 299.96 213.756 300.59 213.704L300.661 213.206C300.679 213.074 300.694 212.941 300.703 212.809C300.04 212.875 299.368 212.899 298.686 212.899Z" fill="#001145"/>
<path d="M339.303 210.077C338.541 210.158 337.765 210.191 336.988 210.191C326.342 210.191 317.3 203.213 314.185 193.603C313.442 191.341 313.044 188.936 313.025 186.441C313.016 186.37 313.016 186.299 313.016 186.228V186.157H312.131V186.228C312.131 186.351 312.131 186.474 312.14 186.592C312.183 189.968 312.907 193.177 314.181 196.108C318.01 204.903 326.787 211.076 336.984 211.076C337.807 211.076 338.626 211.034 339.431 210.953L339.303 210.077Z" fill="#001145"/>
<path d="M248.224 163.652C248.224 163.652 257.019 178.829 254.43 179.624C251.84 180.415 244.351 167.084 244.351 167.084L248.224 163.652Z" fill="#FFCBCB"/>
<path d="M250.179 168.623C250.179 168.623 244.181 170.308 241.781 170.327C239.381 170.346 233.392 162.459 233.392 162.459L233.52 152.84C233.52 152.84 250.359 148.48 260.267 159.041L250.179 168.623Z" fill="#FFCBCB"/>
<path d="M249.663 158.284C249.663 158.284 269.493 173.887 266.587 175.799C263.68 177.707 246.127 163.908 246.127 163.908L249.663 158.284Z" fill="#FFCBCB"/>
<path d="M251.234 155.107C256.688 154.672 273.294 161.811 271.424 164.272C269.55 166.734 248.555 160.48 248.555 160.48L251.234 155.107Z" fill="#FFCBCB"/>
<path d="M235.12 164.447C235.163 164.674 235.792 167.723 239.073 169.934C242.5 172.249 246.657 169.91 246.832 169.811L246.254 168.802C246.216 168.821 242.543 170.876 239.721 168.973C236.815 167.008 236.275 164.3 236.261 164.234L235.12 164.442C235.12 164.442 235.12 164.442 235.12 164.447Z" fill="#001145"/>
<path d="M244.084 92.2247C237.062 90.5964 232.63 83.8419 234.184 77.1382C235.738 70.4344 242.691 66.32 249.713 67.9483C256.735 69.5766 261.168 76.3311 259.613 83.0348C258.059 89.7385 251.106 93.853 244.084 92.2247Z" fill="#001145"/>
<path d="M247.097 104.36L233.032 102.802L236.725 86.8631L250.42 90.0396L247.097 104.36Z" fill="#FFCBCB"/>
<path d="M248.152 99.8104L239.967 96.8138L247.461 102.802L248.152 99.8104Z" fill="#DD9691"/>
<path d="M248.129 101.036L235.234 95.5877L238.557 81.2582C239.769 76.0225 245.203 72.8081 250.69 74.0815C256.177 75.355 259.642 80.6285 258.425 85.8642L255.807 97.1546C254.898 101.074 251.632 102.584 248.129 101.036Z" fill="#FFCBCB"/>
<path d="M242.545 85.2614L236.946 83.9637L239.989 70.834L245.588 72.1317L242.545 85.2614Z" fill="#001145"/>
<path d="M247.887 71.1657L242.95 70.2757L241.795 76.6665L245.345 77.3103C246.112 77.4476 246.846 76.941 246.983 76.1741L247.887 71.1657Z" fill="#001145"/>
<path d="M257.833 88.4207L256.631 93.5996C256.432 93.6138 256.223 93.5996 256.02 93.5523C254.713 93.2493 253.932 91.8007 254.273 90.3238C254.619 88.8373 255.954 87.8905 257.26 88.1935C257.469 88.2408 257.663 88.3213 257.833 88.4207Z" fill="#DB9999"/>
<path d="M247.679 88.8798C247.314 90.4468 245.752 91.4219 244.18 91.0622C242.613 90.6977 241.638 89.1355 241.998 87.5638C242.362 85.9969 243.925 85.0217 245.496 85.3815C247.068 85.746 248.043 87.3129 247.679 88.8798Z" fill="#DB9999"/>
<path d="M246.438 93.2681L252.829 94.4989C252.829 94.4941 249.42 98.5511 246.438 93.2681Z" fill="white"/>
<path d="M248.261 86.3851C248.147 86.8822 247.65 87.1899 247.158 87.0716C246.661 86.958 246.353 86.4609 246.471 85.9686C246.585 85.4715 247.082 85.1638 247.574 85.2822C248.067 85.3958 248.374 85.8881 248.261 86.3851Z" fill="#001145"/>
<path d="M256.105 88.2028C255.991 88.6999 255.494 89.0076 255.002 88.8892C254.51 88.7709 254.197 88.2785 254.315 87.7862C254.429 87.2892 254.926 86.9814 255.418 87.0998C255.911 87.2134 256.218 87.7057 256.105 88.2028Z" fill="#001145"/>
<path d="M251.381 91.5309C251.338 91.5214 251.295 91.5072 251.253 91.4883L249.624 91.1238L249.79 90.4042L251.613 90.8019L251.617 90.7782L251.665 90.6883L251.882 89.7651L252.597 89.9356L252.379 90.8587C252.36 91.0764 252.214 91.2989 251.987 91.4315C251.802 91.5451 251.584 91.5782 251.381 91.5309Z" fill="#001145"/>
<path d="M241.755 95.3997L240.971 96.0785L231.107 84.7633L231.891 84.0846L241.755 95.3997Z" fill="white"/>
<path d="M240.251 85.7301C239.687 88.2431 237.273 89.806 234.849 89.2217C232.425 88.6374 230.918 86.1339 231.481 83.6208C232.045 81.1078 234.459 79.5449 236.883 80.1292C239.302 80.7135 240.81 83.2218 240.251 85.7301Z" fill="#FFCBCB"/>
<path d="M241.128 88.5038L240.104 88.6719L238.603 79.7426L239.627 79.5744L241.128 88.5038Z" fill="white"/>
<path d="M248.874 101.332L245.401 100.688C240.738 99.7472 237.731 95.1373 238.683 90.4056L239.56 86.036L259.169 90.0022L258.291 94.3718C257.339 99.1035 255.4 102.378 248.874 101.332Z" fill="white"/>
<path d="M373.458 128.37H312.235C310.067 128.37 307.525 130.15 306.559 132.342L285.701 179.558C284.731 181.75 285.701 183.529 287.869 183.529H349.093C351.261 183.529 353.803 181.75 354.769 179.558L375.627 132.342C376.592 130.15 375.622 128.37 373.458 128.37Z" fill="#78809A"/>
<path d="M262.107 186.261H345.367C346.12 186.261 346.731 185.65 346.731 184.898C346.731 184.145 346.12 183.534 345.367 183.534H262.107C261.355 183.534 260.744 184.145 260.744 184.898C260.744 185.65 261.355 186.261 262.107 186.261Z" fill="#414E78"/>
<g clip-path="url(#clip0)">
<path d="M677.072 108.848C676.342 107.671 647.258 64.0947 624.615 70.3037C602.702 76.3098 659.078 129.618 659.078 129.618L677.072 108.848Z" fill="#FFCBCB"/>
<path d="M673.17 90.611L642.95 69.6465L634.707 102.153L645.635 117.078L673.17 90.611Z" fill="#FE4F88"/>
<path d="M639.632 300.476C639.591 300.151 639.542 299.81 639.486 299.445C639.031 296.718 637.871 293.252 635.048 290.606C634.658 290.249 634.253 289.9 633.798 289.575C633.677 289.486 633.555 289.397 633.425 289.316C628.152 285.761 625.467 284.129 625.467 277.433V262.118H598.703V303H639.769C639.778 302.407 639.753 301.531 639.632 300.476Z" fill="#FFC945"/>
<path d="M628.752 191.83H623.284C609.712 191.83 598.703 202.836 598.703 216.423V266.663H653.334V216.423C653.334 202.844 642.333 191.83 628.752 191.83Z" fill="#001145"/>
<path d="M625.467 266.663H598.703V277.433H625.467V266.663Z" fill="#FFCBCB"/>
<path d="M639.486 299.445C639.55 299.802 639.591 300.151 639.632 300.476H598.703V299.445H639.486Z" fill="#001145"/>
<path d="M653.334 257.012H598.703V258.124H653.334V257.012Z" fill="#6864FF"/>
<path d="M598.687 214.515L653.334 214.45C653.334 214.45 650.624 153.61 642.495 125.446H598.687V214.515V214.515Z" fill="#001145"/>
<path d="M601.139 174.237L600.109 174.245L600.758 257.502L601.789 257.494L601.139 174.237Z" fill="#6864FF"/>
<path d="M561.254 262.036H534.49L532.194 277.344C531.188 284.032 528.252 285.655 522.451 289.21C518.021 291.929 515.888 296.141 514.874 299.331C514.76 299.688 514.663 300.037 514.573 300.362C514.273 301.49 514.119 302.407 514.046 303H555.113L561.254 262.036Z" fill="#FFC945"/>
<path d="M565.027 191.822H570.243C583.889 191.822 593.292 202.876 591.239 216.512L583.727 266.582H529.095L536.608 216.512C538.66 202.876 551.381 191.822 565.027 191.822Z" fill="#001145"/>
<path d="M532.194 277.344H558.958L560.573 266.582H533.809L532.194 277.344Z" fill="#FFCBCB"/>
<path d="M514.873 299.331C514.76 299.688 514.662 300.037 514.573 300.362H555.502L555.656 299.331H514.873Z" fill="#001145"/>
<path d="M585.098 256.94H530.466V258.052H585.098V256.94Z" fill="#6864FF"/>
<path d="M591.572 214.483L536.932 214.418C536.932 214.418 543.073 153.61 561.124 125.495H604.933L591.572 214.483Z" fill="#001145"/>
<path d="M595.745 174.14L581.206 257.397L582.221 257.574L596.76 174.317L595.745 174.14Z" fill="#6864FF"/>
<path d="M564.597 97.0714H508.132C508.132 97.0714 517.891 123.807 544.258 123.807C565.684 123.807 564.597 97.0714 564.597 97.0714Z" fill="#FFCBCB"/>
<path d="M653.334 175.954H539.163L552.63 77.1458L590.655 46.5715H605.923L642.95 69.6463L653.334 175.954Z" fill="#FE4F88"/>
<path d="M628.112 286.142H616.875V287.173H628.112V286.142Z" fill="#001145"/>
<path d="M626.018 283.699H614.782V284.73H626.018V283.699Z" fill="#001145"/>
<path d="M623.925 281.248H612.689V282.279H623.925V281.248Z" fill="#001145"/>
<path d="M540.072 285.801H528.836V286.832H540.072V285.801Z" fill="#001145"/>
<path d="M542.165 283.35H530.929V284.381H542.165V283.35Z" fill="#001145"/>
<path d="M544.258 280.907H533.022V281.938H544.258V280.907Z" fill="#001145"/>
<path d="M604.463 299.615L605.388 300.078C605.436 299.989 610.247 290.606 616.875 290.606H635.048C634.658 290.249 634.253 289.9 633.798 289.575H616.875C609.606 289.575 604.674 299.201 604.463 299.615Z" fill="#001145"/>
<path d="M550.497 299.656L549.572 300.119C549.694 300.354 544.883 290.98 538.247 290.98H520.074C520.463 290.623 520.869 290.274 521.323 289.949H538.247C545.524 289.949 550.456 299.575 550.497 299.656Z" fill="#001145"/>
<path d="M553.482 229.685C561.205 229.685 568.004 222.51 569.294 212.989C570.681 202.73 565.108 193.478 556.865 192.366C556.322 192.293 555.762 192.252 555.218 192.252C547.495 192.252 540.696 199.427 539.406 208.947C538.741 213.898 539.65 218.76 541.978 222.648C544.323 226.568 547.828 229.027 551.835 229.571C552.379 229.644 552.939 229.685 553.482 229.685ZM555.21 193.242C555.713 193.242 556.224 193.275 556.727 193.348C564.426 194.387 569.627 203.144 568.312 212.86C567.095 221.893 560.719 228.703 553.482 228.703C552.979 228.703 552.468 228.67 551.965 228.597C548.257 228.094 545.004 225.805 542.814 222.145C540.599 218.452 539.739 213.809 540.38 209.085C541.605 200.052 547.982 193.242 555.21 193.242Z" fill="#6864FF"/>
<path d="M635.567 229.685C636.119 229.685 636.67 229.644 637.214 229.571C641.23 229.027 644.726 226.568 647.071 222.648C649.399 218.76 650.308 213.898 649.643 208.947C648.353 199.435 641.562 192.252 633.831 192.252C633.279 192.252 632.728 192.293 632.184 192.366C623.941 193.478 618.368 202.73 619.755 212.989C621.045 222.502 627.844 229.685 635.567 229.685ZM633.839 193.242C641.076 193.242 647.452 200.052 648.669 209.085C649.31 213.817 648.442 218.452 646.235 222.145C644.045 225.805 640.8 228.094 637.084 228.597C636.581 228.662 636.07 228.703 635.567 228.703C628.33 228.703 621.954 221.893 620.737 212.86C619.423 203.144 624.623 194.387 632.322 193.348C632.825 193.275 633.336 193.242 633.839 193.242Z" fill="#6864FF"/>
<path d="M625.467 266.663L598.703 270.307V266.663H625.467Z" fill="#E59A8A"/>
<path d="M533.809 266.582H560.573L559.834 271.468L533.809 266.582Z" fill="#DD9691"/>
<path d="M608.081 13.3921L619.853 30.1686L603.124 34.1862L608.081 13.3921Z" fill="#001145"/>
<path d="M595.693 34.6405C603.614 34.6405 610.036 28.2159 610.036 20.2908C610.036 12.3657 603.614 5.94107 595.693 5.94107C587.771 5.94107 581.349 12.3657 581.349 20.2908C581.349 28.2159 587.771 34.6405 595.693 34.6405Z" fill="#001145"/>
<path d="M596.171 9.84501C591.239 12.8886 586.55 14.236 585.69 12.8481C584.83 11.4602 588.132 7.86462 593.064 4.82099C597.997 1.77735 602.686 0.430035 603.546 1.81793C604.406 3.20583 601.104 6.80138 596.171 9.84501Z" fill="#001145"/>
<path d="M592.691 10.6973C589.803 15.7214 586.314 19.1383 584.903 18.3267C583.491 17.5151 584.684 12.7751 587.572 7.75109C590.46 2.72706 593.948 -0.689929 595.36 0.121707C596.772 0.933343 595.579 5.66518 592.691 10.6973Z" fill="#001145"/>
<path d="M611.456 22.9044L617.703 36.3045L599.011 40.0867L611.456 22.9044Z" fill="#001145"/>
<path d="M590.127 48.9335L606.515 46.9612V27.8797H590.127V48.9335Z" fill="#FFCBCB"/>
<path d="M599.627 38.9016H590.127V44.0474L599.627 38.9016Z" fill="#001145"/>
<path d="M589.835 40.9795L605.915 38.1875V21.0214C605.915 14.7474 600.593 9.6666 594.021 9.6666C587.458 9.6666 582.128 14.7474 582.128 21.0214V34.5432C582.136 39.2345 585.454 41.8155 589.835 40.9795Z" fill="#FFCBCB"/>
<path d="M589.389 32.2055C590.103 32.2218 590.655 33.6665 590.622 35.4358C590.59 37.2052 589.981 38.6337 589.267 38.6174C588.554 38.6012 588.002 37.1565 588.034 35.3871C588.067 33.6178 588.675 32.1893 589.389 32.2055Z" fill="#001145"/>
<path d="M582.136 24.0813V30.2822C582.363 30.3471 582.599 30.3877 582.842 30.3877C584.408 30.3877 585.673 28.9511 585.673 27.1818C585.673 25.4043 584.4 23.9758 582.842 23.9758C582.599 23.9758 582.355 24.0164 582.136 24.0813Z" fill="#DB9999"/>
<path d="M593.543 27.279C593.543 29.1539 595.06 30.6798 596.942 30.6798C598.824 30.6798 600.341 29.162 600.341 27.279C600.341 25.4041 598.824 23.8783 596.942 23.8783C595.06 23.8783 593.543 25.4041 593.543 27.279Z" fill="#DB9999"/>
<path d="M593.218 31.6458L585.649 32.1571C585.649 32.149 589.779 37.4003 593.218 31.6458Z" fill="white"/>
<path d="M593.543 24.2922C593.543 24.8847 594.022 25.3636 594.614 25.3636C595.206 25.3636 595.685 24.8847 595.685 24.2922C595.685 23.6998 595.206 23.2209 594.614 23.2209C594.022 23.2209 593.543 23.6998 593.543 24.2922Z" fill="#001145"/>
<path d="M584.156 24.2922C584.156 24.8847 584.635 25.3636 585.227 25.3636C585.82 25.3636 586.298 24.8847 586.298 24.2922C586.298 23.6998 585.82 23.2209 585.227 23.2209C584.635 23.2209 584.156 23.6998 584.156 24.2922Z" fill="#001145"/>
<path d="M588.618 29.3246C588.407 29.3246 588.172 29.2272 587.985 29.0568C587.766 28.8457 587.661 28.5536 587.693 28.2451L587.685 27.19H588.545L588.578 28.4399L588.61 28.4318L588.732 28.4562L590.744 28.4643V29.3246L588.732 29.3165C588.691 29.3165 588.659 29.3246 588.618 29.3246Z" fill="#001145"/>
<path d="M606.069 10.803H602.004V27.9366H606.069V10.803Z" fill="#001145"/>
<path d="M600.244 29.6096L601.012 30.391L607.827 23.6887L607.059 22.9073L600.244 29.6096Z" fill="white"/>
<path d="M598.012 37.3358L598.698 38.1902L611.047 28.2708L610.361 27.4164L598.012 37.3358Z" fill="white"/>
<path d="M604.033 26.0697C604.033 29.0646 606.458 31.4914 609.452 31.4914C612.446 31.4914 614.871 29.0646 614.871 26.0697C614.871 23.0748 612.446 20.648 609.452 20.648C606.467 20.648 604.033 23.0748 604.033 26.0697Z" fill="#FFCBCB"/>
<path d="M589.292 29.9901C589.551 30.6556 588.416 31.7107 586.761 32.3519C585.106 32.985 583.564 32.9607 583.305 32.287C583.045 31.6215 584.181 30.5663 585.836 29.9251C587.491 29.2921 589.04 29.3245 589.292 29.9901Z" fill="#001145"/>
<path d="M595.904 31.8405C595.741 32.5385 593.997 32.7252 592.01 32.2545C590.022 31.7837 588.545 30.8341 588.716 30.1361C588.878 29.4381 590.622 29.2514 592.61 29.7222C594.598 30.1929 596.074 31.1425 595.904 31.8405Z" fill="#001145"/>
<path d="M589.559 42.0024L593.259 41.9862C598.24 41.8888 602.199 37.7575 602.102 32.7741L602.013 28.1721L581.065 28.5942L581.155 33.1961C581.252 38.1796 582.639 41.8644 589.559 42.0024Z" fill="white"/>
<path d="M606.515 46.9614L590.127 48.9336C590.127 48.9336 591.028 52.6915 595.685 52.6915C600.341 52.6915 606.515 46.9614 606.515 46.9614Z" fill="#FFCBCB"/>
<path d="M603.497 17.9532H600.479C598.711 17.9532 597.275 16.5166 597.275 14.7472V8.83038H603.497V17.9532Z" fill="#001145"/>
<path d="M598.938 8.83038H588.699V12.6532H598.938V8.83038Z" fill="#001145"/>
<path d="M634.009 56.6118H505V149.934H634.009V56.6118Z" fill="#935941"/>
<path d="M583.467 56.6118H505V149.934H583.467V56.6118Z" fill="#C67D60"/>
<path d="M549.085 56.6117H533.314V73.648H549.085V56.6117Z" fill="#EF9F7E"/>
<path d="M614.182 147.012L672.472 140.608C682.694 136.282 686.994 124.107 681.769 114.319C676.861 105.115 665.422 101.633 656.214 106.543L605.939 135.843L614.182 147.012Z" fill="#FFCBCB"/>
<path d="M625.377 138.619L612.251 135.722C605.055 134.131 597.932 138.676 596.342 145.875L594.76 153.042L607.886 155.94C615.082 157.53 622.205 152.985 623.795 145.786L625.377 138.619Z" fill="#FFCBCB"/>
<path d="M541.362 147.767L532.689 140.803C527.603 136.72 520.171 137.532 516.091 142.613L511.653 148.14L520.325 155.104C525.412 159.186 532.843 158.375 536.924 153.294L541.362 147.767Z" fill="#FFCBCB"/>
</g>
<path d="M473.752 227H376V297.678H473.752V227Z" fill="#935941"/>
<path d="M435.463 227H376V297.678H435.463V227Z" fill="#C67D60"/>
<path d="M409.405 227H397.454V239.904H409.405V227Z" fill="#EF9F7E"/>
<path d="M369 157H466.752V227.678H369V157Z" fill="#935941"/>
<path d="M407.29 157H466.752V227.678H407.29V157Z" fill="#C67D60"/>
<path d="M433.348 157H445.298V169.904H433.348V157Z" fill="#EF9F7E"/>
<path d="M192.192 165.023H156.721V149.843C156.721 143.16 162.155 137.726 168.838 137.726H180.068C186.751 137.726 192.184 143.16 192.184 149.843V165.023H192.192ZM158.374 163.362H190.532V149.843C190.532 144.079 185.84 139.387 180.076 139.387H168.838C163.074 139.387 158.382 144.079 158.382 149.843V163.362H158.374Z" fill="#001145"/>
<path d="M178.077 129.914L168.886 130.334C165.734 130.479 163.3 133.147 163.445 136.299L163.525 138.137C163.727 142.595 167.508 146.046 171.966 145.844L186.856 145.159L186.509 137.613C186.316 133.155 182.535 129.713 178.077 129.914Z" fill="#FFCBCB"/>
<path d="M138.679 160.25H210.226V233.918H138.679V160.25Z" fill="#935941"/>
<path d="M174.424 131.752L143.411 94.6366C136.148 89.9447 126.425 92.5002 122.41 100.159C118.63 107.35 121.403 116.25 128.594 120.023L170.127 142.563L174.424 131.752Z" fill="#FFCBCB"/>
<path d="M144.5 264.448C142.629 263.915 140.227 264.77 139.082 268.785C139.058 268.865 139.034 268.946 139.026 269.027C138.921 269.43 138.865 269.849 138.832 270.276C138.607 273.541 140.211 277.233 140.291 277.419L140.574 278.072L140.598 278.12L141.219 277.693L141.235 277.677C141.372 277.58 143.871 275.847 145.548 273.501V273.493C146.104 272.719 146.563 271.864 146.813 270.986C147.958 266.979 146.37 264.98 144.5 264.448ZM145.596 270.639C144.927 272.969 142.379 275.194 141.17 276.153C140.638 274.702 139.647 271.469 140.308 269.131C141.057 266.495 142.5 265.205 144.153 265.681C145.806 266.149 146.346 268.003 145.596 270.639Z" fill="#001145"/>
<path d="M154.423 275.226C153.924 272.864 151.497 271.735 148.063 272.453C147.2 272.638 146.346 273.017 145.548 273.493V273.501C143.21 274.887 141.355 277.096 141.041 277.491C141.017 277.524 140.993 277.54 140.993 277.548L140.582 278.072L140.517 278.152L141.202 278.507C141.251 278.531 141.992 278.918 143.097 279.345C143.097 279.345 143.105 279.354 143.113 279.354C143.613 279.547 144.201 279.749 144.83 279.926C146.741 280.474 148.393 280.611 149.732 280.329C153.795 279.474 154.827 277.137 154.423 275.226ZM149.457 279.079C148.321 279.313 146.878 279.184 145.169 278.701C144.088 278.394 143.137 277.999 142.516 277.725C143.548 276.58 145.943 274.194 148.329 273.702C150.997 273.138 152.827 273.815 153.174 275.492C153.529 277.177 152.134 278.515 149.457 279.079Z" fill="#001145"/>
<path d="M168.16 302.918H105.908V205.831H139.026V270.268C139.026 280.821 146.434 280.909 156.527 283.691C164.517 285.892 167.08 292.623 167.87 297.5C167.943 297.944 167.999 298.363 168.04 298.774C168.314 301.209 168.16 302.918 168.16 302.918Z" fill="#FE4F88"/>
<path d="M139.027 270.268H105.902L105.902 165.966H139.027V270.268Z" fill="#FFCBCB"/>
<path d="M168.048 298.782H105.908V297.508H167.87C167.943 297.944 167.999 298.371 168.048 298.782Z" fill="#001145"/>
<path d="M86.5627 26.9062C85.4659 22.2612 88.3422 17.6066 92.9872 16.5098C97.6322 15.4129 102.287 18.2893 103.384 22.9343C104.48 27.5793 101.604 32.2339 96.9591 33.3307C92.3141 34.4276 87.6595 31.5512 86.5627 26.9062Z" fill="#001145"/>
<path d="M119.75 33.6662C114.977 33.6662 111.108 29.797 111.108 25.0241C111.108 20.2512 114.977 16.382 119.75 16.382C124.523 16.382 128.392 20.2512 128.392 25.0241C128.392 29.797 124.523 33.6662 119.75 33.6662Z" fill="#001145"/>
<path d="M107.956 27.4749C100.583 27.4749 94.6057 21.7721 94.6057 14.7374C94.6057 7.70274 100.583 2 107.956 2C115.329 2 121.306 7.70274 121.306 14.7374C121.306 21.7721 115.329 27.4749 107.956 27.4749Z" fill="#001145"/>
<path d="M113.763 41.487H98.4617V23.6707L113.763 23.6707V41.487Z" fill="#FFCBCB"/>
<path d="M113.76 34.5933L104.344 33.4324L113.76 39.1804V34.5933Z" fill="#001145"/>
<path d="M114.035 34.9803L99.0157 33.2954V17.0592C99.0157 11.2064 103.99 6.4581 110.117 6.4581C116.252 6.4581 121.218 11.2064 121.218 17.0592V28.0634C121.226 32.4408 118.638 35.2705 114.035 34.9803Z" fill="#FFCBCB"/>
<path d="M101.353 11.932H103.925C105.682 11.932 107.109 10.5051 107.109 8.74763V4.57169H101.353V11.932Z" fill="#001145"/>
<path d="M121.233 20.1387V25.927C121.024 25.9915 120.798 26.0238 120.572 26.0238C119.113 26.0238 117.928 24.6775 117.928 23.0329C117.928 21.3722 119.113 20.042 120.572 20.042C120.798 20.0339 121.024 20.0743 121.233 20.1387Z" fill="#C75450"/>
<path d="M99.0156 8.98138H102.934V19.3245H99.0156V8.98138Z" fill="#001145"/>
<path d="M107.539 30.802L107.056 31.6777L94.4154 24.7179L94.8975 23.8422L107.539 30.802Z" fill="white"/>
<path d="M104.462 24.316L103.682 24.9409L98.2391 18.1454L99.0194 17.5205L104.462 24.316Z" fill="white"/>
<path d="M96.8631 26.4994C94.067 26.4994 91.8003 24.2328 91.8003 21.4367C91.8003 18.6406 94.067 16.374 96.8631 16.374C99.6591 16.374 101.926 18.6406 101.926 21.4367C101.926 24.2328 99.6591 26.4994 96.8631 26.4994Z" fill="#FFCBCB"/>
<path d="M110.576 23.1216C110.576 24.871 109.157 26.2979 107.4 26.2979C105.65 26.2979 104.224 24.879 104.224 23.1216C104.224 21.3641 105.642 19.9453 107.4 19.9453C109.157 19.9453 110.576 21.3722 110.576 23.1216Z" fill="#C75450"/>
<path d="M117.308 26.9025L110.221 26.8703C110.221 26.8622 113.712 32.0217 117.308 26.9025Z" fill="white"/>
<path d="M109.577 21.3319C109.024 21.3319 108.577 20.8843 108.577 20.3322C108.577 19.7801 109.024 19.3326 109.577 19.3326C110.129 19.3326 110.576 19.7801 110.576 20.3322C110.576 20.8843 110.129 21.3319 109.577 21.3319Z" fill="#001145"/>
<path d="M118.339 21.3319C117.787 21.3319 117.34 20.8843 117.34 20.3322C117.34 19.7801 117.787 19.3326 118.339 19.3326C118.892 19.3326 119.339 19.7801 119.339 20.3322C119.339 20.8843 118.892 21.3319 118.339 21.3319Z" fill="#001145"/>
<path d="M115.147 25.0241C115.373 25.0241 115.598 24.9354 115.768 24.7742C115.969 24.5807 116.074 24.3066 116.042 24.0164L115.768 21.7269L114.97 21.8236L115.244 24.1132L115.066 24.613L115.429 24.2502L112.914 23.8632L112.785 24.6533L115.002 25.0161C115.05 25.0161 115.099 25.0241 115.147 25.0241Z" fill="#001145"/>
<path d="M114.752 35.7461L111.382 35.73C106.844 35.6413 103.232 31.8443 103.321 27.2653L103.401 23.0329L122.491 23.4199L122.411 27.6522C122.322 32.2313 121.064 35.6091 114.752 35.7461Z" fill="white"/>
<path d="M68.228 277.443L68.4618 276.709C68.5343 276.492 70.1305 271.397 68.76 267.995C67.2041 264.125 64.7211 263.528 62.9153 264.254C61.1095 264.98 59.739 267.132 61.2949 271.002C62.6654 274.396 67.3492 276.967 67.5427 277.08L68.228 277.443ZM63.399 265.439C64.9952 264.794 66.5592 265.931 67.583 268.478C68.4859 270.728 67.841 274.049 67.4621 275.548C66.1561 274.726 63.391 272.783 62.48 270.534C61.4562 267.987 61.8028 266.084 63.399 265.439Z" fill="#001145"/>
<path d="M64.2213 279.692C66.1481 278.918 67.6153 277.943 67.6798 277.902L68.3167 277.475L67.7765 276.927C67.6153 276.766 63.8505 272.977 60.2066 272.606C56.724 272.251 54.4183 273.63 54.1765 276.032C53.9749 277.967 55.2406 280.184 59.3924 280.611C60.7548 280.74 62.3833 280.434 64.2213 279.692ZM66.2851 277.258C65.6966 277.596 64.7856 278.088 63.7457 278.507C62.093 279.168 60.6742 279.45 59.5214 279.329C56.7965 279.047 55.2729 277.862 55.4422 276.153C55.6195 274.452 57.3689 273.589 60.0776 273.864C62.5042 274.113 65.1323 276.234 66.2851 277.258Z" fill="#001145"/>
<path d="M51.2503 302.918H102.039V205.831H68.9134V270.268C68.9134 278.547 65.584 280.563 59.0621 284.964C54.08 288.326 52.2258 293.55 51.5647 297.5C51.4922 297.944 51.4277 298.371 51.3793 298.774C51.0972 301.217 51.2503 302.918 51.2503 302.918Z" fill="#FE4F88"/>
<path d="M68.9132 165.974H102.039V270.276H68.9132V165.974Z" fill="#FFCBCB"/>
<path d="M51.5647 297.5C51.4922 297.944 51.4277 298.371 51.3793 298.774H102.039V297.5H51.5647Z" fill="#001145"/>
<path d="M59.0622 89.9769L81.7074 95.6201L130.472 95.4508L139.751 71.1368C139.751 69.1537 140.243 65.5098 139.01 63.1961C137.51 60.3987 135.358 56.9644 133.874 55.3682C133.874 55.3682 128.505 50.2652 122.717 46.0489C118.646 43.0822 114.817 40.5589 113.599 40.5589H98.9432C98.79 40.5589 98.6288 40.5589 98.4756 40.567C98.4515 40.567 98.4273 40.5751 98.4031 40.5751H98.3789C97.6211 40.6154 96.8794 40.7443 96.1539 40.962C95.1542 41.2442 94.1868 41.6876 93.292 42.268C93.2759 42.2761 93.2517 42.2922 93.2356 42.3083C91.9134 43.1709 90.7203 44.3237 89.7368 45.7426L59.0622 89.9769Z" fill="#FFC945"/>
<path d="M83.7468 96.2489L93.582 68.7264L92.8645 68.4926L83.0293 96.0151L83.7468 96.2489Z" fill="#001145"/>
<path d="M63.9716 192.989H149.554C149.554 192.989 148.393 167.546 146.499 132.631C146.483 132.285 146.459 131.938 146.442 131.599C146.039 124.279 145.604 116.967 145.153 109.978C145.128 109.639 145.096 109.285 145.08 108.946C144.225 96.1441 143.282 84.4789 142.275 75.9174C142.226 75.5708 142.194 75.2241 142.146 74.8855C141.976 73.5634 141.815 72.3058 141.646 71.161C141.597 70.8144 141.541 70.4597 141.501 70.1291C140.928 66.4046 140.348 63.7282 139.751 62.4222H106.94C105.005 62.4222 103.353 63.7846 102.966 65.6791L102.063 70.1291L101.853 71.161L96.8712 95.5717L85.1979 95.6201L81.7072 95.6282C81.7072 95.6282 80.9414 97.9419 79.716 102.521C78.1198 108.438 75.7416 118.161 73.2102 131.599C73.1457 131.938 73.0813 132.285 73.0168 132.631C69.7921 149.907 66.3498 173.157 63.9716 192.989Z" fill="#6864FF"/>
<path d="M93.2191 42.3164L107.303 62.4141H113.76L98.3947 40.5831H98.3705C97.6127 40.6234 96.8711 40.7524 96.1455 40.9701C95.1459 41.2522 94.1785 41.6956 93.2836 42.276C93.2594 42.2922 93.2433 42.3083 93.2191 42.3164Z" fill="#6864FF"/>
<path d="M122.709 46.057L135.946 62.4141H139.751C138.252 59.6167 135.35 56.9644 133.866 55.3682C133.866 55.3763 128.497 50.2733 122.709 46.057Z" fill="#6864FF"/>
<path d="M105.9 199.067L139.034 192.989L105.9 192.981V199.067Z" fill="#DD9691"/>
<path d="M102.039 199.067L69.4778 192.981H102.039V199.067Z" fill="#DD9691"/>
<path d="M101.845 71.153H141.646C141.597 70.8063 141.541 70.4516 141.5 70.1211H102.063L101.845 71.153Z" fill="#001145"/>
<path d="M73.0167 132.631H146.499C146.483 132.285 146.458 131.938 146.442 131.599H73.2102C73.1457 131.938 73.0812 132.285 73.0167 132.631Z" fill="#001145"/>
<path d="M142.145 74.8855C142.194 75.2241 142.226 75.5707 142.274 75.9174H111.164V85.0593C111.164 88.808 112.027 92.3632 113.575 95.5153C117.461 103.464 125.635 108.946 135.059 108.946H145.08C145.096 109.285 145.128 109.639 145.152 109.978H135.059C125.055 109.978 116.396 104.053 112.438 95.5234C110.955 92.339 110.124 88.7919 110.124 85.0593V74.8855H142.145Z" fill="#001145"/>
<path d="M110.552 63.9056C111.85 63.9056 112.898 64.9617 112.898 66.2596C112.898 67.5494 111.85 68.6055 110.552 68.6055C109.254 68.6055 108.206 67.5494 108.206 66.2596C108.198 64.9697 109.246 63.9056 110.552 63.9056ZM110.552 67.5817C111.277 67.5817 111.866 66.9932 111.866 66.2676C111.866 65.5421 111.277 64.9455 110.552 64.9455C109.826 64.9455 109.238 65.5421 109.238 66.2676C109.23 66.9932 109.818 67.5817 110.552 67.5817Z" fill="#001145"/>
<path d="M138.01 63.3493C138.461 63.3493 138.872 63.4783 139.227 63.696H139.235V63.704C139.92 64.1071 140.356 64.8488 140.356 65.6953C140.356 66.2515 140.154 66.7594 139.832 67.1705C139.404 67.7026 138.743 68.0412 138.01 68.0412C136.712 68.0412 135.664 66.9932 135.664 65.6953C135.664 64.3973 136.712 63.3493 138.01 63.3493ZM138.01 67.0093C138.735 67.0093 139.324 66.4208 139.324 65.6953C139.324 64.9697 138.735 64.3812 138.01 64.3812C137.284 64.3812 136.696 64.9697 136.696 65.6953C136.696 66.4208 137.284 67.0093 138.01 67.0093Z" fill="#001145"/>
<path d="M44.1396 139.887L80.2237 109.035C84.98 101.811 83.8111 92.2504 76.2009 88.1631C69.0421 84.3177 60.1259 87.0103 56.2805 94.169L35.0703 133.687L44.1396 139.887Z" fill="#FFCBCB"/>
<path d="M118.807 297.855L118.082 298.427L105.9 283.013V281.53L118.807 297.855Z" fill="#001145"/>
<path d="M89.0757 297.863L102.039 280.966V282.473L89.8173 298.419L89.0757 297.863Z" fill="#001145"/>
<path d="M18.036 165.023H53.5073V149.843C53.5073 143.16 48.0738 137.726 41.3906 137.726H30.1527C23.4696 137.726 18.036 143.16 18.036 149.843V165.023ZM51.8466 163.362H19.6967V149.843C19.6967 144.079 24.3886 139.387 30.1527 139.387H41.3906C47.1547 139.387 51.8466 144.079 51.8466 149.843V163.362Z" fill="#001145"/>
<path d="M32.1439 129.914L41.3342 130.334C44.4863 130.479 46.9209 133.147 46.7758 136.299L46.6952 138.137C46.4937 142.595 42.7127 146.046 38.2546 145.844L23.3647 145.159L23.7114 137.613C23.9049 133.155 27.6858 129.713 32.1439 129.914Z" fill="#FFCBCB"/>
<path d="M71.547 233.919H-0.000244141L-0.000244141 160.251H71.547L71.547 233.919Z" fill="#C67D60"/>
<defs>
<clipPath id="clip0">
<rect width="179" height="303" fill="white" transform="translate(505)"/>
</clipPath>
</defs>
</svg>
