<svg width="766" height="149" viewBox="0 0 766 149" fill="none" xmlns="http://www.w3.org/2000/svg">
<path d="M47.97 36.47L50.3901 46.18C52.0401 52.82 47.02 59.24 40.18 59.24H11.4201C4.58005 59.24 -0.439971 65.67 1.21003 72.3L18.3 140.97C19.47 145.66 23.68 148.95 28.51 148.95H109.38L109.23 148.33L87.06 59.23L77.9601 22.66C76.7901 17.97 72.58 14.68 67.75 14.68H65C53.58 14.69 45.21 25.4 47.97 36.47Z" fill="#F4167B"/>
<path d="M140.3 148.34H128.58C123.75 148.34 119.54 145.05 118.37 140.36L101.43 72.3C99.78 65.66 104.8 59.24 111.64 59.24H123.36C128.19 59.24 132.4 62.53 133.57 67.22L150.5 135.27C152.17 141.91 147.14 148.34 140.3 148.34Z" fill="#F4167B"/>
<path d="M147.85 139.83H136.13C129.86 139.83 124.43 135.58 122.92 129.5L105.99 61.45C104.97 57.36 105.88 53.1 108.48 49.78C111.08 46.46 114.99 44.55 119.21 44.55H130.93C137.2 44.55 142.63 48.8 144.14 54.88L161.07 122.93C162.09 127.02 161.18 131.28 158.58 134.6C155.98 137.93 152.07 139.83 147.85 139.83ZM119.19 50.74C116.89 50.74 114.75 51.78 113.34 53.59C111.92 55.4 111.43 57.73 111.98 59.96L128.91 128.01C129.74 131.33 132.7 133.65 136.12 133.65H147.84C150.14 133.65 152.28 132.61 153.69 130.8C155.11 128.99 155.6 126.66 155.05 124.43L138.12 56.38C137.29 53.06 134.33 50.74 130.91 50.74H119.19V50.74Z" fill="#3E378C"/>
<path d="M120.87 140.45H36.0399C29.7699 140.45 24.3399 136.2 22.8299 130.12L5.73989 61.45C4.71989 57.36 5.62991 53.1 8.22991 49.78C10.8299 46.46 14.7399 44.55 18.9599 44.55H47.7199C50.0199 44.55 52.1599 43.51 53.5699 41.7C54.9899 39.89 55.4799 37.56 54.9299 35.33L52.5099 25.62C50.9699 19.42 52.3399 12.97 56.2799 7.93C60.2099 2.89 66.1399 0 72.5299 0H75.2799C81.5499 0 86.9799 4.25 88.4899 10.33L120.87 140.45ZM18.9499 50.74C16.6499 50.74 14.5099 51.78 13.0999 53.59C11.6799 55.4 11.1899 57.73 11.7399 59.96L28.8299 128.63C29.6599 131.95 32.6199 134.27 36.0399 134.27H112.95L82.4899 11.82C81.6599 8.5 78.6999 6.18 75.2799 6.18H72.5299C68.0499 6.18 63.9099 8.2 61.1499 11.73C58.3899 15.26 57.4299 19.77 58.5099 24.11L60.9299 33.82C61.9499 37.91 61.0399 42.17 58.4399 45.49C55.8399 48.81 51.9299 50.72 47.7099 50.72H18.9499V50.74Z" fill="#3E378C"/>
<path d="M408.57 148.96H396.85C392.02 148.96 387.81 145.67 386.64 140.98L369.7 72.92C368.05 66.28 373.07 59.86 379.91 59.86H391.63C396.46 59.86 400.67 63.15 401.84 67.84L418.77 135.89C420.44 142.53 415.41 148.96 408.57 148.96Z" fill="#F4167B"/>
<path d="M416.12 140.45H404.4C398.13 140.45 392.7 136.2 391.19 130.12L374.26 62.07C373.24 57.98 374.15 53.72 376.75 50.4C379.35 47.08 383.26 45.17 387.48 45.17H399.2C405.47 45.17 410.9 49.42 412.41 55.5L429.34 123.55C430.36 127.64 429.45 131.9 426.85 135.22C424.25 138.55 420.33 140.45 416.12 140.45ZM387.46 51.35C385.16 51.35 383.02 52.39 381.61 54.2C380.19 56.01 379.7 58.34 380.25 60.57L397.18 128.62C398.01 131.94 400.97 134.26 404.39 134.26H416.11C418.41 134.26 420.55 133.22 421.96 131.41C423.38 129.6 423.87 127.27 423.32 125.04L406.39 56.99C405.56 53.67 402.6 51.35 399.18 51.35H387.46V51.35Z" fill="#3E378C"/>
<path d="M209.92 143.89C203.72 143.89 198.2 143.16 193.37 141.72C188.54 140.27 184.47 138.49 181.16 136.39C177.85 134.29 175.24 132.17 173.33 130.01C171.41 127.86 170.2 126.03 169.71 124.53C169.32 123.43 169.43 122.53 170.05 121.83C170.66 121.13 171.37 120.78 172.17 120.78H186.72C187.12 120.78 187.46 120.83 187.74 120.93C188.01 121.03 188.41 121.28 188.91 121.68C190.45 122.58 192.04 123.61 193.7 124.76C195.35 125.91 197.24 126.89 199.35 127.68C201.46 128.48 203.87 128.88 206.57 128.88C209.87 128.88 212.47 128.21 214.36 126.85C216.25 125.5 216.87 123.58 216.21 121.08C215.73 119.28 214.84 117.78 213.52 116.58C212.2 115.38 209.96 114.28 206.8 113.28C203.63 112.28 199.05 111.18 193.03 109.98C187.31 108.78 182.29 107.18 177.96 105.18C173.63 103.18 170.11 100.66 167.41 97.6C164.7 94.55 162.78 90.88 161.65 86.58C160.62 82.68 160.85 78.93 162.35 75.33C163.85 71.73 166.69 68.76 170.87 66.4C175.05 64.05 180.74 62.88 187.94 62.88C193.44 62.88 198.44 63.55 202.95 64.9C207.46 66.25 211.38 67.95 214.72 70C218.06 72.05 220.74 74.15 222.76 76.3C224.78 78.45 226.05 80.33 226.57 81.92C226.96 83.02 226.9 83.92 226.38 84.62C225.86 85.32 225.16 85.67 224.26 85.67H210.91C210.41 85.67 209.93 85.57 209.48 85.37C209.03 85.17 208.61 84.92 208.23 84.62C206.85 83.92 205.38 83.02 203.84 81.92C202.3 80.82 200.57 79.87 198.66 79.07C196.75 78.27 194.44 77.87 191.74 77.87C188.54 77.87 186.26 78.6 184.89 80.04C183.52 81.49 183.13 83.32 183.71 85.51C184.08 86.91 184.87 88.21 186.09 89.41C187.31 90.61 189.42 91.71 192.44 92.71C195.45 93.71 200.01 94.76 206.1 95.86C213.22 97.06 219.09 98.86 223.73 101.26C228.36 103.66 231.95 106.44 234.48 109.59C237.01 112.74 238.75 116.12 239.71 119.71C240.95 124.41 240.68 128.59 238.89 132.24C237.1 135.89 233.78 138.74 228.92 140.79C224.05 142.86 217.72 143.89 209.92 143.89Z" fill="#3E378C"/>
<path d="M297.72 142.39C291.52 142.39 285.97 141.37 281.08 139.31C276.19 137.26 272.02 134.09 268.59 129.78C265.15 125.48 262.58 120.08 260.86 113.58L252.54 82.08H240.84C239.74 82.08 238.75 81.73 237.86 81.03C236.98 80.33 236.4 79.48 236.14 78.48L233.41 68.13C233.12 67.03 233.23 66.13 233.75 65.43C234.26 64.73 235.07 64.38 236.17 64.38H247.87L241.33 39.63C241.04 38.53 241.18 37.63 241.74 36.93C242.31 36.23 243.09 35.88 244.09 35.88H258.94C259.94 35.88 260.88 36.23 261.77 36.93C262.65 37.63 263.24 38.53 263.53 39.63L270.07 64.38H288.82C289.92 64.38 290.91 64.73 291.8 65.43C292.68 66.13 293.27 67.03 293.56 68.13L296.29 78.48C296.55 79.48 296.43 80.33 295.91 81.03C295.4 81.73 294.59 82.08 293.49 82.08H274.74L282.59 111.78C283.59 115.58 285.08 118.56 287.05 120.71C289.02 122.86 291.65 123.93 294.95 123.93H305.9C307 123.93 307.99 124.28 308.88 124.98C309.76 125.68 310.34 126.53 310.6 127.53L313.53 138.63C313.82 139.73 313.71 140.63 313.19 141.33C312.67 142.03 311.87 142.38 310.77 142.38H297.72V142.39Z" fill="#3E378C"/>
<path d="M331.02 142.39C330.02 142.39 329.05 142.04 328.12 141.34C327.19 140.64 326.57 139.74 326.28 138.64L307.65 68.14C307.39 67.14 307.53 66.26 308.08 65.52C308.63 64.77 309.41 64.4 310.41 64.4H325.11C326.21 64.4 327.21 64.78 328.11 65.52C329.01 66.27 329.59 67.15 329.85 68.14L331.44 74.14C333.12 71.04 335.59 68.64 338.84 66.94C342.09 65.24 346.06 64.39 350.77 64.39H357.22C358.32 64.39 359.31 64.74 360.2 65.44C361.08 66.14 361.67 67.04 361.96 68.14L365.41 81.19C365.67 82.19 365.55 83.04 365.03 83.74C364.52 84.44 363.71 84.79 362.61 84.79H349.56C345.06 84.79 341.92 86.04 340.13 88.54C338.34 91.04 338.03 94.49 339.19 98.89L349.69 138.64C349.98 139.74 349.84 140.64 349.28 141.34C348.71 142.04 347.93 142.39 346.93 142.39H331.02Z" fill="#3E378C"/>
<path d="M490.73 143.89C485.03 143.89 480 142.91 475.63 140.97C471.26 139.02 467.48 136.54 464.29 133.54L465.64 138.64C465.93 139.74 465.82 140.64 465.3 141.34C464.78 142.04 463.98 142.39 462.88 142.39H448.63C447.53 142.39 446.54 142.04 445.65 141.34C444.76 140.64 444.18 139.74 443.89 138.64L417.73 39.64C417.44 38.54 417.55 37.64 418.07 36.94C418.58 36.24 419.39 35.89 420.49 35.89H435.94C437.04 35.89 438.03 36.24 438.92 36.94C439.8 37.64 440.39 38.54 440.68 39.64L449.28 72.19C450.97 69.49 453.43 67.27 456.67 65.52C459.91 63.77 464.13 62.9 469.33 62.9C474.43 62.9 479.14 63.78 483.45 65.52C487.76 67.27 491.68 69.72 495.22 72.87C498.75 76.02 501.81 79.75 504.4 84.04C506.98 88.34 509.07 93.09 510.64 98.29C511.21 100.09 511.71 101.77 512.12 103.32C512.53 104.87 512.93 106.6 513.34 108.49C514.54 113.79 514.97 118.61 514.62 122.97C514.27 127.32 513.18 131.07 511.37 134.22C509.55 137.37 506.94 139.77 503.52 141.42C500.08 143.06 495.83 143.89 490.73 143.89ZM479.07 125.89C482.87 125.89 485.65 125.06 487.42 123.41C489.18 121.76 490.18 119.59 490.42 116.89C490.66 114.19 490.45 111.24 489.81 108.04C489.19 104.94 488.37 101.84 487.35 98.74C486.3 95.54 484.95 92.59 483.29 89.89C481.63 87.19 479.48 85.01 476.84 83.36C474.2 81.71 470.98 80.89 467.19 80.89C463.69 80.89 461 81.69 459.12 83.29C457.24 84.89 456.08 86.92 455.63 89.37C455.18 91.82 455.27 94.45 455.91 97.25C456.28 99.05 456.72 100.9 457.23 102.8C457.73 104.7 458.28 106.6 458.89 108.5C459.78 111.5 461.1 114.3 462.83 116.9C464.57 119.5 466.79 121.65 469.48 123.35C472.17 125.04 475.37 125.89 479.07 125.89Z" fill="#3E378C"/>
<path d="M567.23 143.89C561.43 143.89 555.95 142.56 550.8 139.91C545.65 137.26 541.16 133.41 537.32 128.36C533.49 123.31 530.62 117.19 528.71 109.99L517.65 68.14C517.36 67.04 517.5 66.14 518.06 65.44C518.63 64.74 519.41 64.39 520.41 64.39H536.46C537.46 64.39 538.4 64.74 539.29 65.44C540.17 66.14 540.76 67.04 541.05 68.14L551.87 109.09C554.83 120.29 561.21 125.89 571.01 125.89C575.71 125.89 579.04 124.42 581.02 121.47C582.99 118.52 583.28 114.4 581.88 109.09L571.06 68.14C570.77 67.04 570.88 66.14 571.4 65.44C571.91 64.74 572.72 64.39 573.82 64.39H589.72C590.72 64.39 591.66 64.74 592.55 65.44C593.43 66.14 594.02 67.04 594.31 68.14L612.94 138.64C613.23 139.74 613.12 140.64 612.6 141.34C612.08 142.04 611.33 142.39 610.33 142.39H595.48C594.48 142.39 593.54 142.04 592.65 141.34C591.76 140.64 591.18 139.74 590.89 138.64L589.34 132.79C587.69 136.39 585.07 139.14 581.47 141.04C577.87 142.93 573.13 143.89 567.23 143.89Z" fill="#3E378C"/>
<path d="M670.33 142.39C664.13 142.39 658.58 141.37 653.69 139.31C648.8 137.26 644.63 134.09 641.2 129.78C637.76 125.48 635.19 120.08 633.47 113.58L625.15 82.08H613.45C612.35 82.08 611.36 81.73 610.47 81.03C609.59 80.33 609.01 79.48 608.75 78.48L606.02 68.13C605.73 67.03 605.84 66.13 606.36 65.43C606.87 64.73 607.68 64.38 608.78 64.38H620.48L613.94 39.63C613.65 38.53 613.79 37.63 614.35 36.93C614.92 36.23 615.7 35.88 616.7 35.88H631.55C632.55 35.88 633.49 36.23 634.38 36.93C635.26 37.63 635.85 38.53 636.14 39.63L642.68 64.38H661.43C662.53 64.38 663.52 64.73 664.41 65.43C665.29 66.13 665.88 67.03 666.17 68.13L668.9 78.48C669.16 79.48 669.04 80.33 668.52 81.03C668 81.73 667.2 82.08 666.1 82.08H647.35L655.2 111.78C656.2 115.58 657.69 118.56 659.66 120.71C661.63 122.86 664.26 123.93 667.56 123.93H678.51C679.61 123.93 680.6 124.28 681.49 124.98C682.37 125.68 682.95 126.53 683.21 127.53L686.14 138.63C686.43 139.73 686.32 140.63 685.8 141.33C685.28 142.03 684.48 142.38 683.38 142.38H670.33V142.39Z" fill="#3E378C"/>
<path d="M735.23 143.89C723.73 143.89 713.76 140.69 705.32 134.29C696.88 127.89 690.85 118.59 687.22 106.39C687.01 105.59 686.72 104.51 686.37 103.16C686.01 101.81 685.74 100.79 685.56 100.09C683.9 92.29 683.88 85.61 685.52 80.06C687.15 74.51 690.38 70.26 695.2 67.31C700.02 64.36 706.18 62.89 713.68 62.89C722.18 62.89 729.68 64.61 736.2 68.06C742.71 71.51 748.18 76.21 752.6 82.16C757.02 88.11 760.25 94.94 762.29 102.64L763.2 106.09C763.46 107.09 763.34 107.97 762.84 108.71C762.34 109.46 761.54 109.83 760.44 109.83H711.54C711.67 110.33 711.76 110.68 711.82 110.88C712.76 114.08 714.14 117.01 715.94 119.65C717.74 122.3 719.93 124.43 722.5 126.02C725.07 127.62 727.91 128.42 731.01 128.42C733.41 128.42 735.31 128.04 736.71 127.3C738.11 126.55 739.21 125.7 740.01 124.75C740.81 123.8 741.36 122.98 741.68 122.27C742.29 121.17 742.84 120.5 743.32 120.25C743.8 120 744.59 119.87 745.7 119.87H761.6C762.5 119.87 763.35 120.17 764.16 120.77C764.97 121.37 765.44 122.12 765.58 123.02C765.93 124.72 765.64 126.75 764.71 129.1C763.78 131.45 762.11 133.75 759.71 136C757.31 138.25 754.07 140.12 750.02 141.62C745.95 143.14 741.02 143.89 735.23 143.89ZM707.88 96.04H737.13L737.01 95.59C736.09 92.09 734.7 89.02 732.85 86.36C731 83.71 728.77 81.64 726.18 80.14C723.58 78.64 720.73 77.89 717.64 77.89C714.54 77.89 712.11 78.64 710.36 80.14C708.6 81.64 707.5 83.72 707.06 86.36C706.61 89.01 706.85 92.09 707.77 95.59L707.88 96.04Z" fill="#3E378C"/>
</svg>
