<svg width="291" height="29" viewBox="0 0 291 29" fill="none" xmlns="http://www.w3.org/2000/svg">
<path d="M55.8 28.8C52.12 28.8 49.2667 27.8533 47.24 25.96C45.24 24.0667 44.1733 21.4 44.04 17.96C44.0133 17.24 44 16.0667 44 14.44C44 12.7867 44.0133 11.5867 44.04 10.84C44.1733 7.42667 45.2533 4.77333 47.28 2.88C49.3333 0.96 52.1733 0 55.8 0C58.1733 0 60.24 0.413334 62 1.24C63.76 2.04 65.12 3.14667 66.08 4.56C67.04 5.94667 67.5467 7.52 67.6 9.28V9.36C67.6 9.57333 67.5067 9.76 67.32 9.92C67.16 10.0533 66.9733 10.12 66.76 10.12H62.96C62.64 10.12 62.4 10.0533 62.24 9.92C62.08 9.78667 61.9467 9.53333 61.84 9.16C61.4133 7.48 60.7067 6.30667 59.72 5.64C58.7333 4.94667 57.4133 4.6 55.76 4.6C51.92 4.6 49.92 6.74667 49.76 11.04C49.7333 11.76 49.72 12.8667 49.72 14.36C49.72 15.8533 49.7333 16.9867 49.76 17.76C49.92 22.0533 51.92 24.2 55.76 24.2C57.4133 24.2 58.7333 23.8533 59.72 23.16C60.7333 22.4667 61.44 21.2933 61.84 19.64C61.92 19.2667 62.04 19.0133 62.2 18.88C62.3867 18.7467 62.64 18.68 62.96 18.68H66.76C67 18.68 67.2 18.76 67.36 18.92C67.5467 19.08 67.6267 19.28 67.6 19.52C67.5467 21.28 67.04 22.8667 66.08 24.28C65.12 25.6667 63.76 26.7733 62 27.6C60.24 28.4 58.1733 28.8 55.8 28.8Z" fill="white"/>
<path d="M84.3038 28.8C80.6771 28.8 77.8504 27.88 75.8238 26.04C73.7971 24.2 72.7304 21.4667 72.6238 17.84C72.5971 17.0667 72.5837 15.9333 72.5837 14.44C72.5837 12.92 72.5971 11.7733 72.6238 11C72.7304 7.45333 73.8237 4.73333 75.9037 2.84C77.9837 0.946666 80.7838 0 84.3038 0C87.8238 0 90.6238 0.946666 92.7038 2.84C94.8104 4.73333 95.9171 7.45333 96.0238 11C96.0771 12.5467 96.1038 13.6933 96.1038 14.44C96.1038 15.16 96.0771 16.2933 96.0238 17.84C95.8904 21.4667 94.8104 24.2 92.7838 26.04C90.7571 27.88 87.9304 28.8 84.3038 28.8ZM84.3038 24.2C86.0904 24.2 87.5171 23.6667 88.5838 22.6C89.6504 21.5067 90.2238 19.8533 90.3038 17.64C90.3571 16.04 90.3838 14.96 90.3838 14.4C90.3838 13.7867 90.3571 12.7067 90.3038 11.16C90.2238 8.94667 89.6504 7.30667 88.5838 6.24C87.5171 5.14667 86.0904 4.6 84.3038 4.6C82.5438 4.6 81.1304 5.14667 80.0638 6.24C78.9971 7.30667 78.4238 8.94667 78.3438 11.16C78.3171 11.9333 78.3038 13.0133 78.3038 14.4C78.3038 15.76 78.3171 16.84 78.3438 17.64C78.4238 19.8533 78.9838 21.5067 80.0238 22.6C81.0904 23.6667 82.5171 24.2 84.3038 24.2Z" fill="white"/>
<path d="M103.516 28.4C103.25 28.4 103.023 28.3067 102.836 28.12C102.65 27.9333 102.556 27.7067 102.556 27.44V1.4C102.556 1.10667 102.636 0.866666 102.796 0.68C102.983 0.493333 103.223 0.4 103.516 0.4H106.596C106.916 0.4 107.156 0.466666 107.316 0.599999C107.476 0.706666 107.623 0.853333 107.756 1.04L119.276 18.96V1.4C119.276 1.10667 119.356 0.866666 119.516 0.68C119.703 0.493333 119.943 0.4 120.236 0.4H123.596C123.89 0.4 124.13 0.493333 124.316 0.68C124.503 0.866666 124.596 1.10667 124.596 1.4V27.4C124.596 27.6933 124.503 27.9333 124.316 28.12C124.13 28.3067 123.903 28.4 123.636 28.4H120.516C120.063 28.4 119.676 28.1867 119.356 27.76L107.876 10.24V27.44C107.876 27.7333 107.783 27.9733 107.596 28.16C107.41 28.32 107.17 28.4 106.876 28.4H103.516Z" fill="white"/>
<path d="M141.757 28.8C139.384 28.8 137.344 28.44 135.637 27.72C133.931 27 132.637 26.0533 131.757 24.88C130.877 23.7067 130.411 22.44 130.357 21.08C130.357 20.84 130.437 20.64 130.597 20.48C130.757 20.32 130.957 20.24 131.197 20.24H134.757C135.077 20.24 135.317 20.3067 135.477 20.44C135.664 20.5467 135.837 20.7333 135.997 21C136.264 21.9067 136.877 22.6667 137.837 23.28C138.797 23.8933 140.104 24.2 141.757 24.2C143.651 24.2 145.077 23.8933 146.037 23.28C146.997 22.64 147.477 21.76 147.477 20.64C147.477 19.8933 147.224 19.28 146.717 18.8C146.237 18.32 145.504 17.9067 144.517 17.56C143.557 17.2133 142.117 16.7867 140.197 16.28C137.051 15.5333 134.744 14.5467 133.277 13.32C131.837 12.0667 131.117 10.2933 131.117 8C131.117 6.45333 131.531 5.08 132.357 3.88C133.211 2.68 134.424 1.73333 135.997 1.04C137.597 0.346667 139.451 0 141.557 0C143.744 0 145.637 0.386667 147.237 1.16C148.837 1.93333 150.051 2.90667 150.877 4.08C151.731 5.22667 152.184 6.37333 152.237 7.52C152.237 7.76 152.157 7.96 151.997 8.12C151.838 8.28 151.637 8.36 151.397 8.36H147.677C147.118 8.36 146.731 8.10667 146.517 7.6C146.357 6.74667 145.824 6.04 144.917 5.48C144.011 4.89333 142.891 4.6 141.557 4.6C140.064 4.6 138.891 4.88 138.037 5.44C137.184 6 136.757 6.81333 136.757 7.88C136.757 8.62667 136.971 9.24 137.397 9.72C137.824 10.2 138.491 10.6267 139.397 11C140.331 11.3733 141.664 11.7867 143.397 12.24C145.744 12.7733 147.611 13.3733 148.997 14.04C150.411 14.7067 151.451 15.5467 152.118 16.56C152.784 17.5733 153.118 18.8667 153.118 20.44C153.118 22.1467 152.637 23.64 151.677 24.92C150.744 26.1733 149.411 27.1333 147.677 27.8C145.971 28.4667 143.997 28.8 141.757 28.8Z" fill="white"/>
<path d="M165.709 28.4C165.442 28.4 165.216 28.3067 165.029 28.12C164.842 27.9333 164.749 27.7067 164.749 27.44V5.32H157.349C157.082 5.32 156.856 5.22667 156.669 5.04C156.482 4.85333 156.389 4.62667 156.389 4.36V1.4C156.389 1.10667 156.469 0.866666 156.629 0.68C156.816 0.493333 157.056 0.4 157.349 0.4H177.749C178.042 0.4 178.282 0.493333 178.469 0.68C178.656 0.866666 178.749 1.10667 178.749 1.4V4.36C178.749 4.62667 178.656 4.85333 178.469 5.04C178.282 5.22667 178.042 5.32 177.749 5.32H170.389V27.44C170.389 27.7067 170.296 27.9333 170.109 28.12C169.922 28.3067 169.682 28.4 169.389 28.4H165.709Z" fill="white"/>
<path d="M184.968 28.4C184.701 28.4 184.474 28.3067 184.288 28.12C184.101 27.9333 184.008 27.7067 184.008 27.44V1.4C184.008 1.10667 184.088 0.866666 184.248 0.68C184.434 0.493333 184.674 0.4 184.968 0.4H195.328C198.581 0.4 201.128 1.16 202.968 2.68C204.834 4.2 205.768 6.36 205.768 9.16C205.768 11.1067 205.288 12.7467 204.328 14.08C203.394 15.3867 202.088 16.3333 200.408 16.92L206.248 27.12C206.328 27.28 206.368 27.4267 206.368 27.56C206.368 27.8 206.274 28 206.088 28.16C205.928 28.32 205.741 28.4 205.528 28.4H201.888C201.461 28.4 201.128 28.3067 200.888 28.12C200.674 27.9333 200.474 27.6667 200.288 27.32L195.128 17.84H189.568V27.44C189.568 27.7067 189.474 27.9333 189.288 28.12C189.128 28.3067 188.901 28.4 188.608 28.4H184.968ZM195.208 13.32C196.808 13.32 198.008 12.96 198.808 12.24C199.634 11.52 200.048 10.48 200.048 9.12C200.048 7.76 199.634 6.70667 198.808 5.96C198.008 5.21333 196.808 4.84 195.208 4.84H189.568V13.32H195.208Z" fill="white"/>
<path d="M223.282 28.8C219.682 28.8 216.882 27.88 214.882 26.04C212.882 24.2 211.882 21.4133 211.882 17.68V1.4C211.882 1.10667 211.962 0.866666 212.122 0.68C212.309 0.493333 212.549 0.4 212.842 0.4H216.482C216.775 0.4 217.002 0.493333 217.162 0.68C217.349 0.866666 217.442 1.10667 217.442 1.4V17.68C217.442 19.8133 217.949 21.4267 218.962 22.52C219.975 23.5867 221.415 24.12 223.282 24.12C225.149 24.12 226.575 23.5867 227.562 22.52C228.575 21.4267 229.082 19.8133 229.082 17.68V1.4C229.082 1.10667 229.175 0.866666 229.362 0.68C229.549 0.493333 229.789 0.4 230.082 0.4H233.682C233.975 0.4 234.202 0.493333 234.362 0.68C234.549 0.866666 234.642 1.10667 234.642 1.4V17.68C234.642 21.4133 233.642 24.2 231.642 26.04C229.669 27.88 226.882 28.8 223.282 28.8Z" fill="white"/>
<path d="M252.637 28.8C248.957 28.8 246.104 27.8533 244.077 25.96C242.077 24.0667 241.011 21.4 240.878 17.96C240.851 17.24 240.837 16.0667 240.837 14.44C240.837 12.7867 240.851 11.5867 240.878 10.84C241.011 7.42667 242.091 4.77333 244.117 2.88C246.171 0.96 249.011 0 252.637 0C255.011 0 257.077 0.413334 258.837 1.24C260.597 2.04 261.957 3.14667 262.917 4.56C263.878 5.94667 264.384 7.52 264.438 9.28V9.36C264.438 9.57333 264.344 9.76 264.158 9.92C263.997 10.0533 263.811 10.12 263.598 10.12H259.798C259.478 10.12 259.238 10.0533 259.077 9.92C258.917 9.78667 258.784 9.53333 258.678 9.16C258.251 7.48 257.544 6.30667 256.557 5.64C255.571 4.94667 254.251 4.6 252.598 4.6C248.758 4.6 246.758 6.74667 246.598 11.04C246.571 11.76 246.557 12.8667 246.557 14.36C246.557 15.8533 246.571 16.9867 246.598 17.76C246.758 22.0533 248.758 24.2 252.598 24.2C254.251 24.2 255.571 23.8533 256.557 23.16C257.571 22.4667 258.278 21.2933 258.678 19.64C258.758 19.2667 258.878 19.0133 259.038 18.88C259.224 18.7467 259.478 18.68 259.798 18.68H263.598C263.838 18.68 264.037 18.76 264.197 18.92C264.384 19.08 264.464 19.28 264.438 19.52C264.384 21.28 263.878 22.8667 262.917 24.28C261.957 25.6667 260.597 26.7733 258.837 27.6C257.077 28.4 255.011 28.8 252.637 28.8Z" fill="white"/>
<path d="M277.501 28.4C277.235 28.4 277.008 28.3067 276.821 28.12C276.635 27.9333 276.541 27.7067 276.541 27.44V5.32H269.141C268.875 5.32 268.648 5.22667 268.461 5.04C268.275 4.85333 268.181 4.62667 268.181 4.36V1.4C268.181 1.10667 268.261 0.866666 268.421 0.68C268.608 0.493333 268.848 0.4 269.141 0.4H289.541C289.835 0.4 290.075 0.493333 290.261 0.68C290.448 0.866666 290.541 1.10667 290.541 1.4V4.36C290.541 4.62667 290.448 4.85333 290.261 5.04C290.075 5.22667 289.835 5.32 289.541 5.32H282.181V27.44C282.181 27.7067 282.088 27.9333 281.901 28.12C281.715 28.3067 281.475 28.4 281.181 28.4H277.501Z" fill="white"/>
<path fill-rule="evenodd" clip-rule="evenodd" d="M25.3251 23.2323C27.0075 20.9218 28 18.0768 28 15C28 11.8131 26.9352 8.87499 25.1419 6.52191L16.8783 14.7855L25.3251 23.2323ZM22.4353 26.1744L13.9624 17.7015L5.52191 26.1419C7.87499 27.9352 10.8131 29 14 29C17.1676 29 20.0895 27.948 22.4353 26.1744ZM2.64329 23.1887C0.980114 20.8861 0 18.0575 0 15C0 11.8324 1.05197 8.91054 2.8256 6.56466L11.0464 14.7855L2.64329 23.1887ZM5.76775 3.67491L13.9624 11.8696L22.1887 3.64329C19.8861 1.98011 17.0575 1 14 1C10.9232 1 8.0782 1.99254 5.76775 3.67491Z" fill="white"/>
</svg>
