<svg width="42" height="42" viewBox="0 0 42 42" fill="none" xmlns="http://www.w3.org/2000/svg">
<path fill-rule="evenodd" clip-rule="evenodd" d="M37.9876 33.3484C40.5112 29.8827 42 25.6152 42 21C42 16.2197 40.4028 11.8125 37.7129 8.28286L25.3175 20.6783L37.9876 33.3484ZM33.653 37.7616L20.9436 25.0522L8.28286 37.7129C11.8125 40.4028 16.2197 42 21 42C25.7514 42 30.1342 40.422 33.653 37.7616ZM3.96494 33.283C1.47017 29.8291 0 25.5862 0 21C0 16.2486 1.57796 11.8658 4.23841 8.347L16.5697 20.6783L3.96494 33.283ZM8.65162 4.01237L20.9436 16.3043L33.283 3.96494C29.8291 1.47017 25.5862 0 21 0C16.3848 0 12.1173 1.48881 8.65162 4.01237Z" fill="#3B3B3B"/>
</svg>
