<svg width="24" height="24" viewBox="0 0 24 24" fill="none" xmlns="http://www.w3.org/2000/svg">
<path fill-rule="evenodd" clip-rule="evenodd" d="M8.08399 19.2778C8.19411 19.0713 8.13905 18.8236 7.94635 18.6997C5.92294 17.3783 4.60153 15.0933 4.60153 12.5056C4.60153 9.9178 5.9367 7.63286 7.94635 6.31145C8.13905 6.18757 8.19411 5.92604 8.08399 5.71957L7.23058 4.23298C7.1067 4.01275 6.81764 3.94392 6.61117 4.08157C3.8307 5.87098 2 8.96804 2 12.5056C2 16.0431 3.8307 19.1401 6.61117 20.9296C6.81764 21.0672 7.1067 20.9984 7.23058 20.7781L8.08399 19.2778Z" fill="white"/>
<path fill-rule="evenodd" clip-rule="evenodd" d="M16.7833 4.2306L15.9161 5.71718C15.806 5.92365 15.861 6.17142 16.0538 6.2953C18.0772 7.61671 19.3986 9.90165 19.3986 12.4894C19.3986 15.0772 18.0634 17.3621 16.0538 18.6835C15.861 18.8074 15.806 19.0689 15.9161 19.2616L16.7833 20.7482C16.9072 20.9685 17.1962 21.0373 17.4027 20.8996C20.1694 19.124 22.0139 16.0132 22.0139 12.4756C22.0139 8.93812 20.1832 5.84107 17.4027 4.05166C17.1825 3.94154 16.9072 4.01036 16.7833 4.2306Z" fill="white"/>
</svg>
