<svg width="747" height="290" viewBox="0 0 747 290" fill="none" xmlns="http://www.w3.org/2000/svg">
<path d="M0 273.159C0 274.392 0.975652 275.387 2.18453 275.387C3.38865 275.387 4.36909 274.387 4.36909 273.159C4.36909 271.927 3.39341 270.932 2.18453 270.932C0.975652 270.932 0 271.927 0 273.159Z" fill="#001145"/>
<path d="M0 239.178C0 240.41 0.975652 241.405 2.18453 241.405C3.38865 241.405 4.36909 240.406 4.36909 239.178C4.36909 237.945 3.39341 236.95 2.18453 236.95C0.975652 236.946 0 237.945 0 239.178Z" fill="#001145"/>
<path d="M0 205.191C0 206.424 0.975652 207.418 2.18453 207.418C3.38865 207.418 4.36909 206.419 4.36909 205.191C4.36909 203.958 3.39341 202.964 2.18453 202.964C0.975652 202.964 0 203.963 0 205.191Z" fill="#001145"/>
<path d="M0 171.209C0 172.442 0.975652 173.437 2.18453 173.437C3.38865 173.437 4.36909 172.437 4.36909 171.209C4.36909 169.977 3.39341 168.982 2.18453 168.982C0.975652 168.982 0 169.977 0 171.209Z" fill="#001145"/>
<path d="M0 137.227C0 138.46 0.975652 139.455 2.18453 139.455C3.38865 139.455 4.36909 138.455 4.36909 137.227C4.36909 135.995 3.39341 135 2.18453 135C0.975652 134.995 0 135.995 0 137.227Z" fill="#001145"/>
<path d="M22.6355 273.159C22.6355 274.392 23.6112 275.387 24.82 275.387C26.0241 275.387 27.0046 274.387 27.0046 273.159C27.0046 271.927 26.0289 270.932 24.82 270.932C23.6112 270.932 22.6355 271.927 22.6355 273.159Z" fill="#001145"/>
<path d="M24.82 241.405C26.0265 241.405 27.0046 240.408 27.0046 239.178C27.0046 237.947 26.0265 236.95 24.82 236.95C23.6135 236.95 22.6355 237.947 22.6355 239.178C22.6355 240.408 23.6135 241.405 24.82 241.405Z" fill="#001145"/>
<path d="M24.82 207.418C26.0265 207.418 27.0046 206.421 27.0046 205.191C27.0046 203.961 26.0265 202.964 24.82 202.964C23.6135 202.964 22.6355 203.961 22.6355 205.191C22.6355 206.421 23.6135 207.418 24.82 207.418Z" fill="#001145"/>
<path d="M22.6355 171.209C22.6355 172.442 23.6112 173.437 24.82 173.437C26.0241 173.437 27.0046 172.437 27.0046 171.209C27.0046 169.977 26.0289 168.982 24.82 168.982C23.6112 168.982 22.6355 169.977 22.6355 171.209Z" fill="#001145"/>
<path d="M24.82 139.455C26.0265 139.455 27.0046 138.458 27.0046 137.227C27.0046 135.997 26.0265 135 24.82 135C23.6135 135 22.6355 135.997 22.6355 137.227C22.6355 138.458 23.6135 139.455 24.82 139.455Z" fill="#001145"/>
<path d="M45.271 273.159C45.271 274.392 46.2467 275.387 47.4556 275.387C48.6597 275.387 49.6401 274.387 49.6401 273.159C49.6401 271.927 48.6644 270.932 47.4556 270.932C46.2514 270.932 45.271 271.927 45.271 273.159Z" fill="#001145"/>
<path d="M45.271 239.178C45.271 240.41 46.2467 241.405 47.4556 241.405C48.6597 241.405 49.6401 240.406 49.6401 239.178C49.6401 237.945 48.6644 236.95 47.4556 236.95C46.2514 236.946 45.271 237.945 45.271 239.178Z" fill="#001145"/>
<path d="M45.271 205.191C45.271 206.424 46.2467 207.418 47.4556 207.418C48.6597 207.418 49.6401 206.419 49.6401 205.191C49.6401 203.958 48.6644 202.964 47.4556 202.964C46.2514 202.964 45.271 203.963 45.271 205.191Z" fill="#001145"/>
<path d="M45.271 171.209C45.271 172.442 46.2467 173.437 47.4556 173.437C48.6597 173.437 49.6401 172.437 49.6401 171.209C49.6401 169.977 48.6644 168.982 47.4556 168.982C46.2514 168.982 45.271 169.977 45.271 171.209Z" fill="#001145"/>
<path d="M45.271 137.227C45.271 138.46 46.2467 139.455 47.4556 139.455C48.6597 139.455 49.6401 138.455 49.6401 137.227C49.6401 135.995 48.6644 135 47.4556 135C46.2514 134.995 45.271 135.995 45.271 137.227Z" fill="#001145"/>
<path d="M67.9065 273.159C67.9065 274.392 68.8822 275.387 70.0911 275.387C71.2952 275.387 72.2756 274.387 72.2756 273.159C72.2756 271.927 71.2999 270.932 70.0911 270.932C68.8869 270.932 67.9065 271.927 67.9065 273.159Z" fill="#001145"/>
<path d="M70.0911 241.405C71.2975 241.405 72.2756 240.408 72.2756 239.178C72.2756 237.947 71.2975 236.95 70.0911 236.95C68.8846 236.95 67.9065 237.947 67.9065 239.178C67.9065 240.408 68.8846 241.405 70.0911 241.405Z" fill="#001145"/>
<path d="M70.0911 207.418C71.2975 207.418 72.2756 206.421 72.2756 205.191C72.2756 203.961 71.2975 202.964 70.0911 202.964C68.8846 202.964 67.9065 203.961 67.9065 205.191C67.9065 206.421 68.8846 207.418 70.0911 207.418Z" fill="#001145"/>
<path d="M67.9065 171.209C67.9065 172.442 68.8822 173.437 70.0911 173.437C71.2952 173.437 72.2756 172.437 72.2756 171.209C72.2756 169.977 71.2999 168.982 70.0911 168.982C68.8869 168.982 67.9065 169.977 67.9065 171.209Z" fill="#001145"/>
<path d="M70.0911 139.455C71.2975 139.455 72.2756 138.458 72.2756 137.227C72.2756 135.997 71.2975 135 70.0911 135C68.8846 135 67.9065 135.997 67.9065 137.227C67.9065 138.458 68.8846 139.455 70.0911 139.455Z" fill="#001145"/>
<path d="M90.542 273.159C90.542 274.392 91.5177 275.387 92.7266 275.387C93.9307 275.387 94.9111 274.387 94.9111 273.159C94.9111 271.927 93.9354 270.932 92.7266 270.932C91.5224 270.932 90.542 271.927 90.542 273.159Z" fill="#001145"/>
<path d="M90.542 239.178C90.542 240.41 91.5177 241.405 92.7266 241.405C93.9307 241.405 94.9111 240.406 94.9111 239.178C94.9111 237.945 93.9354 236.95 92.7266 236.95C91.5224 236.946 90.542 237.945 90.542 239.178Z" fill="#001145"/>
<path d="M90.542 205.191C90.542 206.424 91.5177 207.418 92.7266 207.418C93.9307 207.418 94.9111 206.419 94.9111 205.191C94.9111 203.958 93.9354 202.964 92.7266 202.964C91.5224 202.964 90.542 203.963 90.542 205.191Z" fill="#001145"/>
<path d="M90.542 171.209C90.542 172.442 91.5177 173.437 92.7266 173.437C93.9307 173.437 94.9111 172.437 94.9111 171.209C94.9111 169.977 93.9354 168.982 92.7266 168.982C91.5224 168.982 90.542 169.977 90.542 171.209Z" fill="#001145"/>
<path d="M90.542 137.227C90.542 138.46 91.5177 139.455 92.7266 139.455C93.9307 139.455 94.9111 138.455 94.9111 137.227C94.9111 135.995 93.9354 135 92.7266 135C91.5224 134.995 90.542 135.995 90.542 137.227Z" fill="#001145"/>
<path d="M113.182 273.159C113.182 274.392 114.158 275.387 115.367 275.387C116.571 275.387 117.551 274.387 117.551 273.159C117.551 271.927 116.576 270.932 115.367 270.932C114.158 270.932 113.182 271.927 113.182 273.159Z" fill="#001145"/>
<path d="M113.182 239.178C113.182 240.41 114.158 241.405 115.367 241.405C116.571 241.405 117.551 240.406 117.551 239.178C117.551 237.945 116.576 236.95 115.367 236.95C114.158 236.946 113.182 237.945 113.182 239.178Z" fill="#001145"/>
<path d="M113.182 205.191C113.182 206.424 114.158 207.418 115.367 207.418C116.571 207.418 117.551 206.419 117.551 205.191C117.551 203.958 116.576 202.964 115.367 202.964C114.158 202.964 113.182 203.963 113.182 205.191Z" fill="#001145"/>
<path d="M113.182 171.209C113.182 172.442 114.158 173.437 115.367 173.437C116.571 173.437 117.551 172.437 117.551 171.209C117.551 169.977 116.576 168.982 115.367 168.982C114.158 168.982 113.182 169.977 113.182 171.209Z" fill="#001145"/>
<path d="M113.182 137.227C113.182 138.46 114.158 139.455 115.367 139.455C116.571 139.455 117.551 138.455 117.551 137.227C117.551 135.995 116.576 135 115.367 135C114.158 134.995 113.182 135.995 113.182 137.227Z" fill="#001145"/>
<path d="M135.818 273.159C135.818 274.392 136.794 275.387 138.002 275.387C139.207 275.387 140.187 274.387 140.187 273.159C140.187 271.927 139.211 270.932 138.002 270.932C136.794 270.932 135.818 271.927 135.818 273.159Z" fill="#001145"/>
<path d="M135.818 239.178C135.818 240.41 136.794 241.405 138.002 241.405C139.207 241.405 140.187 240.406 140.187 239.178C140.187 237.945 139.211 236.95 138.002 236.95C136.794 236.946 135.818 237.945 135.818 239.178Z" fill="#001145"/>
<path d="M135.818 205.191C135.818 206.424 136.794 207.418 138.002 207.418C139.207 207.418 140.187 206.419 140.187 205.191C140.187 203.958 139.211 202.964 138.002 202.964C136.794 202.964 135.818 203.963 135.818 205.191Z" fill="#001145"/>
<path d="M135.818 171.209C135.818 172.442 136.794 173.437 138.002 173.437C139.207 173.437 140.187 172.437 140.187 171.209C140.187 169.977 139.211 168.982 138.002 168.982C136.794 168.982 135.818 169.977 135.818 171.209Z" fill="#001145"/>
<path d="M135.818 137.227C135.818 138.46 136.794 139.455 138.002 139.455C139.207 139.455 140.187 138.455 140.187 137.227C140.187 135.995 139.211 135 138.002 135C136.794 134.995 135.818 135.995 135.818 137.227Z" fill="#001145"/>
<path d="M158.453 273.159C158.453 274.392 159.429 275.387 160.638 275.387C161.842 275.387 162.822 274.387 162.822 273.159C162.822 271.927 161.847 270.932 160.638 270.932C159.429 270.932 158.453 271.927 158.453 273.159Z" fill="#001145"/>
<path d="M158.453 239.178C158.453 240.41 159.429 241.405 160.638 241.405C161.842 241.405 162.822 240.406 162.822 239.178C162.822 237.945 161.847 236.95 160.638 236.95C159.429 236.946 158.453 237.945 158.453 239.178Z" fill="#001145"/>
<path d="M158.453 205.191C158.453 206.424 159.429 207.418 160.638 207.418C161.842 207.418 162.822 206.419 162.822 205.191C162.822 203.958 161.847 202.964 160.638 202.964C159.429 202.964 158.453 203.963 158.453 205.191Z" fill="#001145"/>
<path d="M158.453 171.209C158.453 172.442 159.429 173.437 160.638 173.437C161.842 173.437 162.822 172.437 162.822 171.209C162.822 169.977 161.847 168.982 160.638 168.982C159.429 168.982 158.453 169.977 158.453 171.209Z" fill="#001145"/>
<path d="M158.453 137.227C158.453 138.46 159.429 139.455 160.638 139.455C161.842 139.455 162.822 138.455 162.822 137.227C162.822 135.995 161.847 135 160.638 135C159.429 134.995 158.453 135.995 158.453 137.227Z" fill="#001145"/>
<path d="M181.089 273.159C181.089 274.392 182.065 275.387 183.273 275.387C184.478 275.387 185.458 274.387 185.458 273.159C185.458 271.927 184.482 270.932 183.273 270.932C182.065 270.932 181.089 271.927 181.089 273.159Z" fill="#001145"/>
<path d="M181.089 239.178C181.089 240.41 182.065 241.405 183.273 241.405C184.478 241.405 185.458 240.406 185.458 239.178C185.458 237.945 184.482 236.95 183.273 236.95C182.065 236.946 181.089 237.945 181.089 239.178Z" fill="#001145"/>
<path d="M181.089 205.191C181.089 206.424 182.065 207.418 183.273 207.418C184.478 207.418 185.458 206.419 185.458 205.191C185.458 203.958 184.482 202.964 183.273 202.964C182.065 202.964 181.089 203.963 181.089 205.191Z" fill="#001145"/>
<path d="M181.089 171.209C181.089 172.442 182.065 173.437 183.273 173.437C184.478 173.437 185.458 172.437 185.458 171.209C185.458 169.977 184.482 168.982 183.273 168.982C182.065 168.982 181.089 169.977 181.089 171.209Z" fill="#001145"/>
<path d="M181.089 137.227C181.089 138.46 182.065 139.455 183.273 139.455C184.478 139.455 185.458 138.455 185.458 137.227C185.458 135.995 184.482 135 183.273 135C182.065 134.995 181.089 135.995 181.089 137.227Z" fill="#001145"/>
<path d="M203.724 273.159C203.724 274.392 204.7 275.387 205.909 275.387C207.113 275.387 208.093 274.387 208.093 273.159C208.093 271.927 207.118 270.932 205.909 270.932C204.7 270.932 203.724 271.927 203.724 273.159Z" fill="#001145"/>
<path d="M203.724 239.178C203.724 240.41 204.7 241.405 205.909 241.405C207.113 241.405 208.093 240.406 208.093 239.178C208.093 237.945 207.118 236.95 205.909 236.95C204.7 236.946 203.724 237.945 203.724 239.178Z" fill="#001145"/>
<path d="M203.724 205.191C203.724 206.424 204.7 207.418 205.909 207.418C207.113 207.418 208.093 206.419 208.093 205.191C208.093 203.958 207.118 202.964 205.909 202.964C204.7 202.964 203.724 203.963 203.724 205.191Z" fill="#001145"/>
<path d="M203.724 171.209C203.724 172.442 204.7 173.437 205.909 173.437C207.113 173.437 208.093 172.437 208.093 171.209C208.093 169.977 207.118 168.982 205.909 168.982C204.7 168.982 203.724 169.977 203.724 171.209Z" fill="#001145"/>
<path d="M203.724 137.227C203.724 138.46 204.7 139.455 205.909 139.455C207.113 139.455 208.093 138.455 208.093 137.227C208.093 135.995 207.118 135 205.909 135C204.7 134.995 203.724 135.995 203.724 137.227Z" fill="#001145"/>
<path d="M226.36 273.159C226.36 274.392 227.336 275.387 228.544 275.387C229.753 275.387 230.729 274.387 230.729 273.159C230.729 271.927 229.753 270.932 228.544 270.932C227.336 270.932 226.36 271.927 226.36 273.159Z" fill="#001145"/>
<path d="M226.36 239.178C226.36 240.41 227.336 241.405 228.544 241.405C229.753 241.405 230.729 240.406 230.729 239.178C230.729 237.945 229.753 236.95 228.544 236.95C227.336 236.95 226.36 237.945 226.36 239.178Z" fill="#001145"/>
<path d="M226.36 205.191C226.36 206.424 227.336 207.418 228.544 207.418C229.753 207.418 230.729 206.419 230.729 205.191C230.729 203.958 229.753 202.964 228.544 202.964C227.336 202.964 226.36 203.963 226.36 205.191Z" fill="#001145"/>
<path d="M226.36 171.209C226.36 172.442 227.336 173.437 228.544 173.437C229.753 173.437 230.729 172.437 230.729 171.209C230.729 169.977 229.753 168.982 228.544 168.982C227.336 168.982 226.36 169.977 226.36 171.209Z" fill="#001145"/>
<path d="M226.36 137.227C226.36 138.46 227.336 139.455 228.544 139.455C229.753 139.455 230.729 138.455 230.729 137.227C230.729 135.995 229.753 135 228.544 135C227.336 135 226.36 135.995 226.36 137.227Z" fill="#001145"/>
<path d="M248.995 273.159C248.995 274.392 249.971 275.387 251.18 275.387C252.384 275.387 253.364 274.387 253.364 273.159C253.364 271.927 252.389 270.932 251.18 270.932C249.976 270.932 248.995 271.927 248.995 273.159Z" fill="#001145"/>
<path d="M248.995 239.178C248.995 240.41 249.971 241.405 251.18 241.405C252.384 241.405 253.364 240.406 253.364 239.178C253.364 237.945 252.389 236.95 251.18 236.95C249.976 236.946 248.995 237.945 248.995 239.178Z" fill="#001145"/>
<path d="M248.995 205.191C248.995 206.424 249.971 207.418 251.18 207.418C252.384 207.418 253.364 206.419 253.364 205.191C253.364 203.958 252.389 202.964 251.18 202.964C249.976 202.964 248.995 203.963 248.995 205.191Z" fill="#001145"/>
<path d="M248.995 171.209C248.995 172.442 249.971 173.437 251.18 173.437C252.384 173.437 253.364 172.437 253.364 171.209C253.364 169.977 252.389 168.982 251.18 168.982C249.976 168.982 248.995 169.977 248.995 171.209Z" fill="#001145"/>
<path d="M248.995 137.227C248.995 138.46 249.971 139.455 251.18 139.455C252.384 139.455 253.364 138.455 253.364 137.227C253.364 135.995 252.389 135 251.18 135C249.976 134.995 248.995 135.995 248.995 137.227Z" fill="#001145"/>
<path d="M271.631 273.159C271.631 274.392 272.607 275.387 273.815 275.387C275.02 275.387 276 274.387 276 273.159C276 271.927 275.024 270.932 273.815 270.932C272.611 270.932 271.631 271.927 271.631 273.159Z" fill="#001145"/>
<path d="M271.631 239.178C271.631 240.41 272.607 241.405 273.815 241.405C275.02 241.405 276 240.406 276 239.178C276 237.945 275.024 236.95 273.815 236.95C272.611 236.946 271.631 237.945 271.631 239.178Z" fill="#001145"/>
<path d="M271.631 205.191C271.631 206.424 272.607 207.418 273.815 207.418C275.02 207.418 276 206.419 276 205.191C276 203.958 275.024 202.964 273.815 202.964C272.611 202.964 271.631 203.963 271.631 205.191Z" fill="#001145"/>
<path d="M271.631 171.209C271.631 172.442 272.607 173.437 273.815 173.437C275.02 173.437 276 172.437 276 171.209C276 169.977 275.024 168.982 273.815 168.982C272.611 168.982 271.631 169.977 271.631 171.209Z" fill="#001145"/>
<path d="M271.631 137.227C271.631 138.46 272.607 139.455 273.816 139.455C275.02 139.455 276 138.455 276 137.227C276 135.995 275.025 135 273.816 135C272.612 134.995 271.631 135.995 271.631 137.227Z" fill="#001145"/>
<path d="M423 290C496.454 290 556 230.454 556 157C556 83.5461 496.454 24 423 24C349.546 24 290 83.5461 290 157C290 230.454 349.546 290 423 290Z" fill="#FFC945"/>
<path d="M381.364 16.86L418.545 54.0418C420.969 57.9687 423.16 62.0506 425.102 66.2772L369.128 10.303C373.35 12.2407 377.437 14.4366 381.364 16.86Z" fill="white"/>
<path d="M351.255 3.84937L431.551 84.1447C432.207 86.5783 432.78 89.0482 433.276 91.5438L343.856 2.12875C346.352 2.61962 348.822 3.19832 351.255 3.84937Z" fill="white"/>
<path d="M330.618 0.31002L435.095 104.787C435.25 106.771 435.353 108.766 435.405 110.775L324.63 0C326.64 0.0516701 328.634 0.15501 330.618 0.31002Z" fill="white"/>
<path d="M313.469 0.263519L435.142 121.936C435.018 123.677 434.852 125.403 434.651 127.124L308.287 0.754385C310.002 0.552872 311.728 0.387527 313.469 0.263519Z" fill="white"/>
<path d="M298.454 2.3407L433.059 136.946C432.739 138.497 432.383 140.036 431.995 141.561L293.84 3.4051C295.364 3.01758 296.904 2.66622 298.454 2.3407Z" fill="white"/>
<path d="M285.019 6.00931L429.396 150.386C428.921 151.786 428.409 153.171 427.882 154.55L280.855 7.52324C282.234 6.99104 283.619 6.48467 285.019 6.00931Z" fill="white"/>
<path d="M272.867 10.9541L424.451 162.539C423.841 163.815 423.211 165.076 422.56 166.326L269.079 12.8453C270.33 12.189 271.59 11.5587 272.867 10.9541Z" fill="white"/>
<path d="M261.809 16.9942L418.406 173.591C417.682 174.753 416.943 175.906 416.179 177.042L258.358 19.216C259.494 18.4565 260.647 17.7176 261.809 16.9942Z" fill="white"/>
<path d="M251.739 24.0162L411.389 183.666C410.562 184.726 409.71 185.769 408.847 186.803L248.602 26.5584C249.631 25.6955 250.674 24.8481 251.739 24.0162Z" fill="white"/>
<path d="M242.598 31.9735L403.427 192.802C402.497 193.763 401.551 194.708 400.585 195.638L239.762 34.8153C240.692 33.8543 241.637 32.9087 242.598 31.9735Z" fill="white"/>
<path d="M234.362 40.8348L394.565 201.038C393.532 201.901 392.483 202.743 391.424 203.57L231.825 43.9815C232.652 42.9171 233.499 41.8682 234.362 40.8348Z" fill="white"/>
<path d="M227.04 50.616L384.784 208.36C383.647 209.119 382.495 209.858 381.327 210.581L224.824 54.0728C225.542 52.9102 226.281 51.7528 227.04 50.616Z" fill="white"/>
<path d="M220.69 61.3634L374.042 214.715C372.791 215.366 371.525 215.991 370.244 216.596L218.809 65.156C219.414 63.8797 220.039 62.6138 220.69 61.3634Z" fill="white"/>
<path d="M215.394 73.1649L362.235 220.006C360.856 220.533 359.466 221.039 358.065 221.515L213.89 77.3346C214.361 75.9344 214.867 74.5444 215.394 73.1649Z" fill="white"/>
<path d="M211.312 86.1805L349.225 224.093C347.695 224.476 346.156 224.832 344.6 225.147L210.258 90.7998C210.573 89.2497 210.93 87.71 211.312 86.1805Z" fill="white"/>
<path d="M208.698 100.664L334.742 226.708C333.021 226.904 331.285 227.064 329.538 227.183L208.222 105.867C208.341 104.12 208.501 102.384 208.698 100.664Z" fill="white"/>
<path d="M208 117.064L318.336 227.4C316.321 227.343 314.316 227.229 312.327 227.069L208.336 123.078C208.171 121.084 208.062 119.084 208 117.064Z" fill="white"/>
<path d="M210.206 136.373L299.027 225.194C296.511 224.687 294.025 224.088 291.571 223.416L211.984 143.824C211.312 141.375 210.718 138.889 210.206 136.373Z" fill="white"/>
<path d="M218.639 161.903L273.497 216.761C269.157 214.725 264.966 212.431 260.946 209.884L225.516 174.454C222.974 170.434 220.675 166.243 218.639 161.903Z" fill="white"/>
<path d="M471 182.159C471 183.392 471.976 184.387 473.185 184.387C474.389 184.387 475.369 183.387 475.369 182.159C475.369 180.927 474.393 179.932 473.185 179.932C471.976 179.932 471 180.927 471 182.159Z" fill="#001145"/>
<path d="M471 148.178C471 149.41 471.976 150.405 473.185 150.405C474.389 150.405 475.369 149.406 475.369 148.178C475.369 146.945 474.393 145.95 473.185 145.95C471.976 145.946 471 146.945 471 148.178Z" fill="#001145"/>
<path d="M471 114.191C471 115.424 471.976 116.418 473.185 116.418C474.389 116.418 475.369 115.419 475.369 114.191C475.369 112.958 474.393 111.964 473.185 111.964C471.976 111.964 471 112.963 471 114.191Z" fill="#001145"/>
<path d="M471 80.2092C471 81.4419 471.976 82.4366 473.185 82.4366C474.389 82.4366 475.369 81.4372 475.369 80.2092C475.369 78.9766 474.393 77.9819 473.185 77.9819C471.976 77.9819 471 78.9766 471 80.2092Z" fill="#001145"/>
<path d="M471 46.2274C471 47.4601 471.976 48.4548 473.185 48.4548C474.389 48.4548 475.369 47.4553 475.369 46.2274C475.369 44.9947 474.393 44 473.185 44C471.976 43.9953 471 44.9947 471 46.2274Z" fill="#001145"/>
<path d="M493.635 182.159C493.635 183.392 494.611 184.387 495.82 184.387C497.024 184.387 498.005 183.387 498.005 182.159C498.005 180.927 497.029 179.932 495.82 179.932C494.611 179.932 493.635 180.927 493.635 182.159Z" fill="#001145"/>
<path d="M495.82 150.405C497.027 150.405 498.005 149.408 498.005 148.178C498.005 146.948 497.027 145.95 495.82 145.95C494.614 145.95 493.635 146.948 493.635 148.178C493.635 149.408 494.614 150.405 495.82 150.405Z" fill="#001145"/>
<path d="M495.82 116.418C497.027 116.418 498.005 115.421 498.005 114.191C498.005 112.961 497.027 111.964 495.82 111.964C494.614 111.964 493.635 112.961 493.635 114.191C493.635 115.421 494.614 116.418 495.82 116.418Z" fill="#001145"/>
<path d="M493.635 80.2092C493.635 81.4419 494.611 82.4366 495.82 82.4366C497.024 82.4366 498.005 81.4372 498.005 80.2092C498.005 78.9766 497.029 77.9819 495.82 77.9819C494.611 77.9819 493.635 78.9766 493.635 80.2092Z" fill="#001145"/>
<path d="M495.82 48.4548C497.027 48.4548 498.005 47.4576 498.005 46.2274C498.005 44.9973 497.027 44 495.82 44C494.614 44 493.635 44.9973 493.635 46.2274C493.635 47.4576 494.614 48.4548 495.82 48.4548Z" fill="#001145"/>
<path d="M516.271 182.159C516.271 183.392 517.247 184.387 518.456 184.387C519.66 184.387 520.64 183.387 520.64 182.159C520.64 180.927 519.664 179.932 518.456 179.932C517.251 179.932 516.271 180.927 516.271 182.159Z" fill="#001145"/>
<path d="M516.271 148.178C516.271 149.41 517.247 150.405 518.456 150.405C519.66 150.405 520.64 149.406 520.64 148.178C520.64 146.945 519.664 145.95 518.456 145.95C517.251 145.946 516.271 146.945 516.271 148.178Z" fill="#001145"/>
<path d="M516.271 114.191C516.271 115.424 517.247 116.418 518.456 116.418C519.66 116.418 520.64 115.419 520.64 114.191C520.64 112.958 519.664 111.964 518.456 111.964C517.251 111.964 516.271 112.963 516.271 114.191Z" fill="#001145"/>
<path d="M516.271 80.2092C516.271 81.4419 517.247 82.4366 518.456 82.4366C519.66 82.4366 520.64 81.4372 520.64 80.2092C520.64 78.9766 519.664 77.9819 518.456 77.9819C517.251 77.9819 516.271 78.9766 516.271 80.2092Z" fill="#001145"/>
<path d="M516.271 46.2274C516.271 47.4601 517.247 48.4548 518.456 48.4548C519.66 48.4548 520.64 47.4553 520.64 46.2274C520.64 44.9947 519.664 44 518.456 44C517.251 43.9953 516.271 44.9947 516.271 46.2274Z" fill="#001145"/>
<path d="M538.906 182.159C538.906 183.392 539.882 184.387 541.091 184.387C542.295 184.387 543.276 183.387 543.276 182.159C543.276 180.927 542.3 179.932 541.091 179.932C539.887 179.932 538.906 180.927 538.906 182.159Z" fill="#001145"/>
<path d="M541.091 150.405C542.298 150.405 543.276 149.408 543.276 148.178C543.276 146.948 542.298 145.95 541.091 145.95C539.885 145.95 538.906 146.948 538.906 148.178C538.906 149.408 539.885 150.405 541.091 150.405Z" fill="#001145"/>
<path d="M541.091 116.418C542.298 116.418 543.276 115.421 543.276 114.191C543.276 112.961 542.298 111.964 541.091 111.964C539.885 111.964 538.906 112.961 538.906 114.191C538.906 115.421 539.885 116.418 541.091 116.418Z" fill="#001145"/>
<path d="M538.906 80.2092C538.906 81.4419 539.882 82.4366 541.091 82.4366C542.295 82.4366 543.276 81.4372 543.276 80.2092C543.276 78.9766 542.3 77.9819 541.091 77.9819C539.887 77.9819 538.906 78.9766 538.906 80.2092Z" fill="#001145"/>
<path d="M541.091 48.4548C542.298 48.4548 543.276 47.4576 543.276 46.2274C543.276 44.9973 542.298 44 541.091 44C539.885 44 538.906 44.9973 538.906 46.2274C538.906 47.4576 539.885 48.4548 541.091 48.4548Z" fill="#001145"/>
<path d="M561.542 182.159C561.542 183.392 562.518 184.387 563.727 184.387C564.931 184.387 565.911 183.387 565.911 182.159C565.911 180.927 564.935 179.932 563.727 179.932C562.522 179.932 561.542 180.927 561.542 182.159Z" fill="#001145"/>
<path d="M561.542 148.178C561.542 149.41 562.518 150.405 563.727 150.405C564.931 150.405 565.911 149.406 565.911 148.178C565.911 146.945 564.935 145.95 563.727 145.95C562.522 145.946 561.542 146.945 561.542 148.178Z" fill="#001145"/>
<path d="M561.542 114.191C561.542 115.424 562.518 116.418 563.727 116.418C564.931 116.418 565.911 115.419 565.911 114.191C565.911 112.958 564.935 111.964 563.727 111.964C562.522 111.964 561.542 112.963 561.542 114.191Z" fill="#001145"/>
<path d="M561.542 80.2092C561.542 81.4419 562.518 82.4366 563.727 82.4366C564.931 82.4366 565.911 81.4372 565.911 80.2092C565.911 78.9766 564.935 77.9819 563.727 77.9819C562.522 77.9819 561.542 78.9766 561.542 80.2092Z" fill="#001145"/>
<path d="M561.542 46.2274C561.542 47.4601 562.518 48.4548 563.727 48.4548C564.931 48.4548 565.911 47.4553 565.911 46.2274C565.911 44.9947 564.935 44 563.727 44C562.522 43.9953 561.542 44.9947 561.542 46.2274Z" fill="#001145"/>
<path d="M584.182 182.159C584.182 183.392 585.158 184.387 586.367 184.387C587.571 184.387 588.551 183.387 588.551 182.159C588.551 180.927 587.576 179.932 586.367 179.932C585.158 179.932 584.182 180.927 584.182 182.159Z" fill="#001145"/>
<path d="M584.182 148.178C584.182 149.41 585.158 150.405 586.367 150.405C587.571 150.405 588.551 149.406 588.551 148.178C588.551 146.945 587.576 145.95 586.367 145.95C585.158 145.946 584.182 146.945 584.182 148.178Z" fill="#001145"/>
<path d="M584.182 114.191C584.182 115.424 585.158 116.418 586.367 116.418C587.571 116.418 588.551 115.419 588.551 114.191C588.551 112.958 587.576 111.964 586.367 111.964C585.158 111.964 584.182 112.963 584.182 114.191Z" fill="#001145"/>
<path d="M584.182 80.2092C584.182 81.4419 585.158 82.4366 586.367 82.4366C587.571 82.4366 588.551 81.4372 588.551 80.2092C588.551 78.9766 587.576 77.9819 586.367 77.9819C585.158 77.9819 584.182 78.9766 584.182 80.2092Z" fill="#001145"/>
<path d="M584.182 46.2274C584.182 47.4601 585.158 48.4548 586.367 48.4548C587.571 48.4548 588.551 47.4553 588.551 46.2274C588.551 44.9947 587.576 44 586.367 44C585.158 43.9953 584.182 44.9947 584.182 46.2274Z" fill="#001145"/>
<path d="M606.818 182.159C606.818 183.392 607.794 184.387 609.002 184.387C610.207 184.387 611.187 183.387 611.187 182.159C611.187 180.927 610.211 179.932 609.002 179.932C607.794 179.932 606.818 180.927 606.818 182.159Z" fill="#001145"/>
<path d="M606.818 148.178C606.818 149.41 607.794 150.405 609.002 150.405C610.207 150.405 611.187 149.406 611.187 148.178C611.187 146.945 610.211 145.95 609.002 145.95C607.794 145.946 606.818 146.945 606.818 148.178Z" fill="#001145"/>
<path d="M606.818 114.191C606.818 115.424 607.794 116.418 609.002 116.418C610.207 116.418 611.187 115.419 611.187 114.191C611.187 112.958 610.211 111.964 609.002 111.964C607.794 111.964 606.818 112.963 606.818 114.191Z" fill="#001145"/>
<path d="M606.818 80.2092C606.818 81.4419 607.794 82.4366 609.002 82.4366C610.207 82.4366 611.187 81.4372 611.187 80.2092C611.187 78.9766 610.211 77.9819 609.002 77.9819C607.794 77.9819 606.818 78.9766 606.818 80.2092Z" fill="#001145"/>
<path d="M606.818 46.2274C606.818 47.4601 607.794 48.4548 609.002 48.4548C610.207 48.4548 611.187 47.4553 611.187 46.2274C611.187 44.9947 610.211 44 609.002 44C607.794 43.9953 606.818 44.9947 606.818 46.2274Z" fill="#001145"/>
<path d="M629.453 182.159C629.453 183.392 630.429 184.387 631.638 184.387C632.842 184.387 633.822 183.387 633.822 182.159C633.822 180.927 632.847 179.932 631.638 179.932C630.429 179.932 629.453 180.927 629.453 182.159Z" fill="#001145"/>
<path d="M629.453 148.178C629.453 149.41 630.429 150.405 631.638 150.405C632.842 150.405 633.822 149.406 633.822 148.178C633.822 146.945 632.847 145.95 631.638 145.95C630.429 145.946 629.453 146.945 629.453 148.178Z" fill="#001145"/>
<path d="M629.453 114.191C629.453 115.424 630.429 116.418 631.638 116.418C632.842 116.418 633.822 115.419 633.822 114.191C633.822 112.958 632.847 111.964 631.638 111.964C630.429 111.964 629.453 112.963 629.453 114.191Z" fill="#001145"/>
<path d="M629.453 80.2092C629.453 81.4419 630.429 82.4366 631.638 82.4366C632.842 82.4366 633.822 81.4372 633.822 80.2092C633.822 78.9766 632.847 77.9819 631.638 77.9819C630.429 77.9819 629.453 78.9766 629.453 80.2092Z" fill="#001145"/>
<path d="M629.453 46.2274C629.453 47.4601 630.429 48.4548 631.638 48.4548C632.842 48.4548 633.822 47.4553 633.822 46.2274C633.822 44.9947 632.847 44 631.638 44C630.429 43.9953 629.453 44.9947 629.453 46.2274Z" fill="#001145"/>
<path d="M652.089 182.159C652.089 183.392 653.065 184.387 654.273 184.387C655.478 184.387 656.458 183.387 656.458 182.159C656.458 180.927 655.482 179.932 654.273 179.932C653.065 179.932 652.089 180.927 652.089 182.159Z" fill="#001145"/>
<path d="M652.089 148.178C652.089 149.41 653.065 150.405 654.273 150.405C655.478 150.405 656.458 149.406 656.458 148.178C656.458 146.945 655.482 145.95 654.273 145.95C653.065 145.946 652.089 146.945 652.089 148.178Z" fill="#001145"/>
<path d="M652.089 114.191C652.089 115.424 653.065 116.418 654.273 116.418C655.478 116.418 656.458 115.419 656.458 114.191C656.458 112.958 655.482 111.964 654.273 111.964C653.065 111.964 652.089 112.963 652.089 114.191Z" fill="#001145"/>
<path d="M652.089 80.2092C652.089 81.4419 653.065 82.4366 654.273 82.4366C655.478 82.4366 656.458 81.4372 656.458 80.2092C656.458 78.9766 655.482 77.9819 654.273 77.9819C653.065 77.9819 652.089 78.9766 652.089 80.2092Z" fill="#001145"/>
<path d="M652.089 46.2274C652.089 47.4601 653.065 48.4548 654.273 48.4548C655.478 48.4548 656.458 47.4553 656.458 46.2274C656.458 44.9947 655.482 44 654.273 44C653.065 43.9953 652.089 44.9947 652.089 46.2274Z" fill="#001145"/>
<path d="M674.724 182.159C674.724 183.392 675.7 184.387 676.909 184.387C678.113 184.387 679.093 183.387 679.093 182.159C679.093 180.927 678.118 179.932 676.909 179.932C675.7 179.932 674.724 180.927 674.724 182.159Z" fill="#001145"/>
<path d="M674.724 148.178C674.724 149.41 675.7 150.405 676.909 150.405C678.113 150.405 679.093 149.406 679.093 148.178C679.093 146.945 678.118 145.95 676.909 145.95C675.7 145.946 674.724 146.945 674.724 148.178Z" fill="#001145"/>
<path d="M674.724 114.191C674.724 115.424 675.7 116.418 676.909 116.418C678.113 116.418 679.093 115.419 679.093 114.191C679.093 112.958 678.118 111.964 676.909 111.964C675.7 111.964 674.724 112.963 674.724 114.191Z" fill="#001145"/>
<path d="M674.724 80.2092C674.724 81.4419 675.7 82.4366 676.909 82.4366C678.113 82.4366 679.093 81.4372 679.093 80.2092C679.093 78.9766 678.118 77.9819 676.909 77.9819C675.7 77.9819 674.724 78.9766 674.724 80.2092Z" fill="#001145"/>
<path d="M674.724 46.2274C674.724 47.4601 675.7 48.4548 676.909 48.4548C678.113 48.4548 679.093 47.4553 679.093 46.2274C679.093 44.9947 678.118 44 676.909 44C675.7 43.9953 674.724 44.9947 674.724 46.2274Z" fill="#001145"/>
<path d="M697.36 182.159C697.36 183.392 698.336 184.387 699.544 184.387C700.753 184.387 701.729 183.387 701.729 182.159C701.729 180.927 700.753 179.932 699.544 179.932C698.336 179.932 697.36 180.927 697.36 182.159Z" fill="#001145"/>
<path d="M697.36 148.178C697.36 149.41 698.336 150.405 699.544 150.405C700.753 150.405 701.729 149.406 701.729 148.178C701.729 146.945 700.753 145.95 699.544 145.95C698.336 145.95 697.36 146.945 697.36 148.178Z" fill="#001145"/>
<path d="M697.36 114.191C697.36 115.424 698.336 116.418 699.544 116.418C700.753 116.418 701.729 115.419 701.729 114.191C701.729 112.958 700.753 111.964 699.544 111.964C698.336 111.964 697.36 112.963 697.36 114.191Z" fill="#001145"/>
<path d="M697.36 80.2092C697.36 81.4419 698.336 82.4366 699.544 82.4366C700.753 82.4366 701.729 81.4372 701.729 80.2092C701.729 78.9766 700.753 77.9819 699.544 77.9819C698.336 77.9819 697.36 78.9766 697.36 80.2092Z" fill="#001145"/>
<path d="M697.36 46.2274C697.36 47.4601 698.336 48.4548 699.544 48.4548C700.753 48.4548 701.729 47.4553 701.729 46.2274C701.729 44.9947 700.753 44 699.544 44C698.336 44 697.36 44.9947 697.36 46.2274Z" fill="#001145"/>
<path d="M719.995 182.159C719.995 183.392 720.971 184.387 722.18 184.387C723.384 184.387 724.364 183.387 724.364 182.159C724.364 180.927 723.389 179.932 722.18 179.932C720.976 179.932 719.995 180.927 719.995 182.159Z" fill="#001145"/>
<path d="M719.995 148.178C719.995 149.41 720.971 150.405 722.18 150.405C723.384 150.405 724.364 149.406 724.364 148.178C724.364 146.945 723.389 145.95 722.18 145.95C720.976 145.946 719.995 146.945 719.995 148.178Z" fill="#001145"/>
<path d="M719.995 114.191C719.995 115.424 720.971 116.418 722.18 116.418C723.384 116.418 724.364 115.419 724.364 114.191C724.364 112.958 723.389 111.964 722.18 111.964C720.976 111.964 719.995 112.963 719.995 114.191Z" fill="#001145"/>
<path d="M719.995 80.2092C719.995 81.4419 720.971 82.4366 722.18 82.4366C723.384 82.4366 724.364 81.4372 724.364 80.2092C724.364 78.9766 723.389 77.9819 722.18 77.9819C720.976 77.9819 719.995 78.9766 719.995 80.2092Z" fill="#001145"/>
<path d="M719.995 46.2274C719.995 47.4601 720.971 48.4548 722.18 48.4548C723.384 48.4548 724.364 47.4553 724.364 46.2274C724.364 44.9947 723.389 44 722.18 44C720.976 43.9953 719.995 44.9947 719.995 46.2274Z" fill="#001145"/>
<path d="M742.631 182.159C742.631 183.392 743.607 184.387 744.815 184.387C746.02 184.387 747 183.387 747 182.159C747 180.927 746.024 179.932 744.815 179.932C743.611 179.932 742.631 180.927 742.631 182.159Z" fill="#001145"/>
<path d="M742.631 148.178C742.631 149.41 743.607 150.405 744.815 150.405C746.02 150.405 747 149.406 747 148.178C747 146.945 746.024 145.95 744.815 145.95C743.611 145.946 742.631 146.945 742.631 148.178Z" fill="#001145"/>
<path d="M742.631 114.191C742.631 115.424 743.607 116.418 744.815 116.418C746.02 116.418 747 115.419 747 114.191C747 112.958 746.024 111.964 744.815 111.964C743.611 111.964 742.631 112.963 742.631 114.191Z" fill="#001145"/>
<path d="M742.631 80.2092C742.631 81.4419 743.607 82.4366 744.815 82.4366C746.02 82.4366 747 81.4372 747 80.2092C747 78.9766 746.024 77.9819 744.815 77.9819C743.611 77.9819 742.631 78.9766 742.631 80.2092Z" fill="#001145"/>
<path d="M742.631 46.2274C742.631 47.4601 743.607 48.4548 744.816 48.4548C746.02 48.4548 747 47.4553 747 46.2274C747 44.9947 746.025 44 744.816 44C743.612 43.9953 742.631 44.9947 742.631 46.2274Z" fill="#001145"/>
</svg>
